<?xml version="1.0" encoding="UTF-8"?>
<svg id="Layer_1" data-name="Layer 1" xmlns="http://www.w3.org/2000/svg" viewBox="0 0 1037 112.5">
  <defs>
    <style>
      .cls-1, .cls-2 {
        stroke-width: 0px;
      }

      .cls-3 {
        font-family: ISOCPEUR, ISOCPEUR;
        font-size: 24px;
      }

      .cls-2 {
        fill: lime;
      }
    </style>
  </defs>
  <g id="Layer_1-2" data-name="Layer 1">
    <g>
      <g>
        <path class="cls-2" d="m30.5,40.7h-4.4c-1.2,0-2-.4-2.9-1.2-.7-.7-1.2-1.7-1.2-2.9,0-.3,0-.7.1-1l2-7.7c.6-2.3,1.7-3.9,3.5-4.5.9-.3,1.9-.6,3.2-.6h3.6c.9,0,1.3.4,1.3,1.3s-.4,1.3-1.3,1.3h-4.4c-1.7,0-2.9.9-3.4,2.6l-2,7.7c-.1.4-.1.7-.1.9,0,1.2.7,1.7,2,1.7h3.6c.9,0,1.3.4,1.3,1.3s-.1,1.1-.9,1.1Z"/>
        <path class="cls-2" d="m146.1,34.4l1.3-5.1c.6-2.3,1.6-3.9,2.8-5,1.3-1,3.1-1.5,5.5-1.5s3.8,1,4.7,3.1c.3.6.4,1.3.4,1.9,0,.4,0,1-.1,1.5l-1.3,5.1c-.7,3.1-2.2,5-4.4,5.7-1,.4-2.5.6-3.9.6-1.5,0-2.6-.4-3.6-1.5s-1.5-2.2-1.5-3.5c0-.4,0-.9.1-1.3Zm10.5,0l1.3-5.1c.1-.6.1-1,.1-1.5,0-1.6-1-2.3-3.1-2.3-2.6,0-4.4,1.3-5,3.8l-1.3,5.1c-.1.6-.1,1-.1,1.5,0,1.6,1,2.3,3.1,2.3,2.7,0,4.4-1.2,5-3.8Z"/>
        <path class="cls-2" d="m274,23.9c.1-.6.6-1,1.2-1h7.9c.9,0,1.3.4,1.3,1.3v.3l-.7,2.6c-.1.6-.6.9-1.2.9-.3,0-.6-.1-.9-.4s-.4-.6-.4-.9v-.4l.3-.9h-5.1l-3.9,14.4c-.1.6-.6.9-1.2.9-.3,0-.6-.1-.9-.4s-.4-.6-.4-.9v-.4l4-15.1Z"/>
        <path class="cls-2" d="m409,29.2l-1,3.8h-10.5l-.7,2.6c-.1.3-.1.6-.1.9,0,1,.7,1.6,2,1.6h6.3c.9,0,1.3.4,1.3,1.3s-.4,1.3-1.3,1.3h-7c-1.2,0-2-.4-2.9-1.2-.7-.7-1.2-1.7-1.2-2.9,0-.3,0-.7.1-1l1.7-6.4c.6-2.3,1.6-3.9,2.8-5,1.2-1,3.1-1.5,5.5-1.5s3.8,1,4.7,3.1c.3.6.4,1.3.4,1.9.1.6.1,1-.1,1.5Zm-2.6,0c.1-.6.1-1,.1-1.5,0-1.6-1-2.5-3.1-2.5-2.6,0-4.2,1.3-5,3.8l-.3,1.3h7.9l.4-1.1Z"/>
        <path class="cls-2" d="m521.2,38c.9,0,1.3.4,1.3,1.3s-.4,1.3-1.3,1.3-1.7-.3-2.3-.9-1-1.3-1-2.2c0-.3,0-.6.1-.7l5.5-20.7c.1-.6.6-.9,1.2-.9.9,0,1.3.4,1.3,1.3v.4l-5.4,20.1c0,.3-.1.4-.1.6-.1.3.1.4.7.4Z"/>
        <path class="cls-2" d="m652.7,40.7h-7c-1.2,0-2-.4-2.8-1.2-.7-.7-1.2-1.7-1.2-2.9,0-2,.6-3.5,1.9-4.7,1.2-1,2.8-1.6,4.8-1.6h5.2l.7-2.6c.1-.3.1-.6.1-.9,0-1-.7-1.6-2-1.6h-5.1c-.9,0-1.3-.4-1.3-1.3s.4-1.3,1.3-1.3h5.7c1.2,0,2,.4,2.9,1.2.9.7,1.2,1.7,1.2,2.9,0,.3,0,.7-.1,1l-3.2,11.8c-.1.9-.5,1.2-1.1,1.2Zm.3-7.8h-5.2c-1,0-1.9.3-2.5,1-.6.6-1,1.5-1,2.5s.7,1.6,2,1.6h5.2l1.5-5.1Z"/>
        <path class="cls-2" d="m776.4,25.4h-4.4l-3.8,14.4c-.1.6-.6.9-1.2.9-.3,0-.6-.1-.9-.4-.3-.3-.4-.6-.4-.9v-.4l3.6-13.7h-1c-.9,0-1.3-.4-1.3-1.3s.4-1.3,1.3-1.3h1.6l1.7-6.7c.1-.6.6-.9,1.2-.9.9,0,1.3.4,1.3,1.3v.4l-1.6,6h3.6c.9,0,1.3.4,1.3,1.3.1.8-.2,1.3-1,1.3Z"/>
        <path class="cls-2" d="m904.7,29.2l-1,3.8h-10.5l-.7,2.6c-.1.3-.1.6-.1.9,0,1,.7,1.6,2,1.6h6.3c.9,0,1.3.4,1.3,1.3s-.4,1.3-1.3,1.3h-7c-1.2,0-2-.4-2.9-1.2-.7-.7-1.2-1.7-1.2-2.9,0-.3,0-.7.1-1l1.7-6.4c.6-2.3,1.6-3.9,2.8-5,1.3-1,3.1-1.5,5.5-1.5s3.8,1,4.7,3.1c.3.6.4,1.3.4,1.9.2.6,0,1-.1,1.5Zm-2.6,0c.1-.6.1-1,.1-1.5,0-1.6-1-2.5-3.1-2.5-2.6,0-4.2,1.3-5,3.8l-.3,1.3h7.9l.4-1.1Z"/>
        <path class="cls-2" d="m1024.7,40.7h-7c-1.2,0-2-.4-2.9-1.2-.7-.7-1.2-1.7-1.2-2.9,0-.3,0-.7.1-1l2-7.7c.4-1.9,1.3-3.2,2.3-3.9,1-.7,2.5-1.2,4.4-1.2h5.2l1.7-6.7c.1-.6.6-.9,1.2-.9.9,0,1.3.4,1.3,1.3v.4l-6.1,22.9c0,.6-.4.9-1,.9Zm-2.9-15.3c-1.7,0-2.9.9-3.4,2.6l-2,7.7c-.1.3-.1.6-.1.9,0,1.2.7,1.6,2,1.6h5.2l3.4-12.8s-5.1,0-5.1,0Z"/>
      </g>
      <g>
        <path class="cls-1" d="m15.5,25.7h-4.4c-1.2,0-2-.4-2.9-1.2-.7-.7-1.2-1.7-1.2-2.9,0-.3,0-.7.1-1l2-7.7c.6-2.3,1.7-3.9,3.5-4.5.9-.3,1.9-.6,3.2-.6h3.8c.9,0,1.3.4,1.3,1.3s-.4,1.3-1.3,1.3h-4.4c-1.7,0-2.9.9-3.4,2.6l-2,7.6c-.1.4-.1.7-.1.9,0,1.2.7,1.7,2,1.7h3.6c.9,0,1.3.4,1.3,1.3.2.9-.3,1.2-1.1,1.2Z"/>
        <path class="cls-1" d="m131.1,19.4l1.3-5.1c.6-2.3,1.6-3.9,2.8-5,1.3-1,3.1-1.5,5.5-1.5s3.8,1,4.7,3.1c.3.6.4,1.3.4,1.9,0,.4,0,1-.1,1.5l-1.3,5.1c-.7,3.1-2.2,5-4.4,5.7-1,.4-2.5.6-3.9.6-1.5,0-2.6-.4-3.6-1.5s-1.5-2.2-1.5-3.5c0-.3.1-.9.1-1.3Zm10.6,0l1.3-5.1c.1-.6.1-1,.1-1.5,0-1.6-1-2.3-3.1-2.3-2.6,0-4.4,1.3-5,3.8l-1.3,5.1c-.1.6-.1,1-.1,1.5,0,1.6,1,2.3,3.1,2.3,2.7.1,4.3-1.2,5-3.8Z"/>
        <path class="cls-1" d="m259.1,8.9c.1-.6.6-1,1.2-1h7.9c.9,0,1.3.4,1.3,1.3v.3l-.7,2.6c-.1.6-.6.9-1.2.9-.3,0-.6-.1-.9-.4s-.4-.6-.4-.9v-.4l.3-.9h-5.2l-3.9,14.4c-.1.6-.6.9-1.2.9-.3,0-.6-.1-.9-.4s-.4-.6-.4-.9v-.4l4.1-15.1Z"/>
        <path class="cls-1" d="m394,14.1l-1,3.8h-10.5l-.7,2.6c-.1.3-.1.6-.1.9,0,1,.7,1.6,2,1.6h6.3c.9,0,1.3.4,1.3,1.3s-.4,1.3-1.3,1.3h-7c-1.2,0-2-.4-2.9-1.2-.7-.7-1.2-1.7-1.2-2.9,0-.3,0-.7.1-1l1.7-6.4c.6-2.3,1.6-3.9,2.8-5,1.2-1,3.1-1.5,5.5-1.5s3.8,1,4.7,3.1c.3.6.4,1.3.4,1.9.1.7.1,1.1-.1,1.5Zm-2.6,0c.1-.6.1-1,.1-1.5,0-1.6-1-2.5-3.1-2.5-2.6,0-4.2,1.3-5,3.8l-.3,1.3h7.9l.4-1.1Z"/>
        <path class="cls-1" d="m506.2,23.2c.9,0,1.3.4,1.3,1.3s-.4,1.3-1.3,1.3-1.7-.3-2.3-.9-1-1.3-1-2.2c0-.3,0-.6.1-.7l5.5-20.7c.1-.6.6-.9,1.2-.9.9,0,1.3.4,1.3,1.3v.4l-5.4,20.1c0,.3-.1.4-.1.6-.1.1.2.4.7.4Z"/>
        <path class="cls-1" d="m637.7,25.7h-7c-1.2,0-2-.4-2.8-1.2-.7-.7-1.2-1.7-1.2-2.9,0-2,.6-3.5,1.9-4.7,1.2-1,2.8-1.6,4.8-1.6h5.2l.7-2.6c.1-.3.1-.6.1-.9,0-1-.7-1.6-2-1.6h-5c-.9,0-1.3-.4-1.3-1.3s.4-1.3,1.3-1.3h5.7c1.2,0,2,.4,2.9,1.2.9.7,1.2,1.7,1.2,2.9,0,.3,0,.7-.1,1l-3.1,11.8c-.3.9-.7,1.2-1.3,1.2Zm.4-7.6h-5.2c-1,0-1.9.3-2.5,1-.6.6-1,1.5-1,2.5s.7,1.6,2,1.6h5.2l1.5-5.1Z"/>
        <path class="cls-1" d="m761.4,10.3h-4.4l-3.8,14.4c-.1.6-.6.9-1.2.9-.3,0-.6-.1-.9-.4-.3-.3-.4-.6-.4-.9v-.4l3.6-13.7h-1c-.9,0-1.3-.4-1.3-1.3s.4-1.3,1.3-1.3h1.6l1.7-6.7c.1-.6.6-.9,1.2-.9.9,0,1.3.4,1.3,1.3v.4l-1.6,6h3.6c.9,0,1.3.4,1.3,1.3.3.9-.2,1.3-1,1.3Z"/>
        <path class="cls-1" d="m889.8,14.1l-1,3.8h-10.5l-.7,2.6c-.1.3-.1.6-.1.9,0,1,.7,1.6,2,1.6h6.3c.9,0,1.3.4,1.3,1.3s-.4,1.3-1.3,1.3h-7c-1.2,0-2-.4-2.9-1.2-.7-.7-1.2-1.7-1.2-2.9,0-.3,0-.7.1-1l1.7-6.4c.6-2.3,1.6-3.9,2.8-5,1.3-1,3.1-1.5,5.5-1.5s3.8,1,4.7,3.1c.3.6.4,1.3.4,1.9.1.7.1,1.1-.1,1.5Zm-2.6,0c.1-.6.1-1,.1-1.5,0-1.6-1-2.5-3.1-2.5-2.6,0-4.2,1.3-5,3.8l-.3,1.3h7.9l.4-1.1Z"/>
        <path class="cls-1" d="m1009.7,25.7h-7c-1.2,0-2-.4-2.9-1.2-.7-.7-1.2-1.7-1.2-2.9,0-.3,0-.7.1-1l2-7.7c.4-1.9,1.3-3.2,2.3-3.9s2.5-1.2,4.4-1.2h5.2l1.7-6.7c.1-.6.6-.9,1.2-.9.9,0,1.3.4,1.3,1.3v.4l-6.1,22.9c0,.6-.4.9-1,.9Zm-2.8-15.4c-1.7,0-2.9.9-3.4,2.6l-2,7.7c-.1.3-.1.6-.1.9,0,1.2.7,1.6,2,1.6h5.2l3.4-12.8h-5.1Z"/>
      </g>
    </g>
  </g>
  <text class="cls-3" transform="translate(320.5 92.98)"><tspan x="0" y="0">LIM RU YI | TEMPORAL ECHOES | ARC3002</tspan></text>
</svg>