<?xml version="1.0" encoding="utf-8"?>
<!-- Generator: Adobe Illustrator 26.5.2, SVG Export Plug-In . SVG Version: 6.00 Build 0)  -->
<svg version="1.1" id="Layer_1" xmlns="http://www.w3.org/2000/svg" xmlns:xlink="http://www.w3.org/1999/xlink" x="0px" y="0px"
	 viewBox="0 0 1125 2436" style="enable-background:new 0 0 1125 2436;" xml:space="preserve">
<style type="text/css">
	.st0{fill:#FFFFFF;stroke:#231F20;stroke-width:9.8565;stroke-miterlimit:15.1182;}
	.st1{fill:#00FF00;stroke:#333333;stroke-width:11.828;stroke-miterlimit:15.1182;}
	.st2{fill:none;stroke:#FFFFFF;stroke-width:15.7704;stroke-miterlimit:4.48;stroke-dasharray:15.7704,15.7704;}
	.st3{fill:none;stroke:#FFFFFF;stroke-width:15.7704;stroke-miterlimit:4.48;}
	.st4{fill:none;stroke:#FFFFFF;stroke-width:15.7704;stroke-miterlimit:4.48;stroke-dasharray:39.9678,39.9678;}
	.st5{fill:#FFFFFF;}
	.st6{fill:none;stroke:#00FF00;stroke-width:23.6556;stroke-miterlimit:4.48;}
	.st7{fill:#00FF00;}
</style>
<g id="d">
</g>
<g id="c_00000127739083478902209600000003261662352687320241_" transform="translate(-78.321 .3026)">
	<g transform="translate(92.574 -24.591)">
		<circle id="a_00000177461607322864558490000013071854765041562761_" class="st0" cx="476.5" cy="1740.3" r="51.3"/>
	</g>
	<g transform="translate(89.947 -15.894)">
		<circle id="a_00000023247607381324480880000001632976004158163867_" class="st0" cx="554.8" cy="1481.1" r="51.3"/>
	</g>
	<g transform="translate(1.9858 -14.764)">
		<g transform="translate(73.288 -5.916)">
			
				<ellipse id="b_00000033365033539467542050000001663103973732552375_" transform="matrix(1 -3.875861e-03 3.875861e-03 1 -6.3455 2.7059)" class="st1" cx="695" cy="1638.5" rx="53.2" ry="53.2"/>
		</g>
		<g transform="translate(74.29 -8.9654)">
			
				<ellipse id="b_00000088113171630768486950000008987032991532775848_" transform="matrix(1 -3.875839e-03 3.875839e-03 1 -6.6979 2.5908)" class="st1" cx="665.1" cy="1729.4" rx="53.2" ry="53.2"/>
		</g>
		<g transform="translate(78.726 -7.4314)">
			
				<ellipse id="b_00000030474518766562858100000005824429274251394446_" transform="matrix(1 -3.875896e-03 3.875896e-03 1 -6.5218 2.0781)" class="st1" cx="532.9" cy="1683.7" rx="53.2" ry="53.2"/>
		</g>
		<g transform="translate(77.734 -4.7797)">
			
				<ellipse id="b_00000083090524268332543170000008439931114164480430_" transform="matrix(1 -3.875918e-03 3.875918e-03 1 -6.2153 2.1921)" class="st1" cx="562.5" cy="1604.7" rx="53.2" ry="53.2"/>
		</g>
		<g transform="translate(74.76 -4.6916)">
			
				<ellipse id="b_00000157305409695162077450000017577997774439822741_" transform="matrix(1 -3.875872e-03 3.875872e-03 1 -6.2044 2.5356)" class="st1" cx="651.1" cy="1602" rx="53.2" ry="53.2"/>
		</g>
		<g transform="translate(75.675 -7.1949)">
			
				<ellipse id="b_00000167361965481865328630000017530329580243780502_" transform="matrix(1 -3.875885e-03 3.875885e-03 1 -6.4938 2.4305)" class="st1" cx="623.8" cy="1676.6" rx="53.2" ry="53.2"/>
		</g>
		<g transform="translate(76.818 -9.663)">
			
				<ellipse id="b_00000113331655110756060190000001187628590800907699_" transform="matrix(1 -3.875851e-03 3.875851e-03 1 -6.7791 2.299)" class="st1" cx="589.8" cy="1750.2" rx="53.2" ry="53.2"/>
		</g>
	</g>
	<g transform="translate(89.302 -22.473)">
		<circle id="a_00000123400204329748211460000004790330010519069354_" class="st0" cx="574" cy="1677.2" r="51.3"/>
	</g>
	<g transform="translate(87.085 -29.058)">
		<circle id="a_00000077321993602879845290000009351711311638173101_" class="st0" cx="640.1" cy="1873.4" r="51.3"/>
	</g>
	<g transform="translate(82.354 -16.425)">
		<circle id="a_00000020401126006127348570000013248605373590711214_" class="st0" cx="781.1" cy="1496.9" r="51.3"/>
	</g>
	<g transform="translate(82.748 -23.702)">
		<circle id="a_00000076567456585196369220000011624981288195730821_" class="st0" cx="769.3" cy="1713.8" r="51.3"/>
	</g>
</g>
<g transform="rotate(-55.421 -24.126 92.559)">
	<g id="d_00000162318680345955702190000015107726416196890524_">
		<g transform="translate(.060905 9.29)">
			<path id="a_00000095339452322646182020000013450303757388752518_" class="st2" d="M584,1256.5c14.5-32.7,55.8-41.1,81.9-17.4
				c15.9,14.5,21.1,38.3,12.3,58c-14.5,32.7-55.8,41.1-81.9,17.4C580.4,1299.9,575.3,1276.2,584,1256.5z"/>
		</g>
	</g>
</g>
<g>
	<g>
		<line class="st3" x1="691.9" y1="1205.7" x2="705.8" y2="1191.7"/>
		<line class="st4" x1="734.1" y1="1163.5" x2="946" y2="951.5"/>
		<line class="st3" x1="960.2" y1="937.4" x2="974.1" y2="923.4"/>
		<g>
			<path class="st5" d="M951.4,1053.2c-4.2-0.9-6.9-5.2-6-9.4L971.5,926l-117.8,26.1c-4.3,0.9-8.5-1.7-9.4-6c-0.9-4.2,1.8-8.5,6-9.4
				l129.9-28.8c2.6-0.6,5.4,0.2,7.3,2.1s2.7,4.7,2.1,7.3l-28.8,129.9c-0.3,1.5-1.1,2.8-2.1,3.9
				C956.9,1052.9,954.1,1053.8,951.4,1053.2z"/>
		</g>
	</g>
</g>
<g>
	<g>
		<line class="st6" x1="137.5" y1="1149.7" x2="383.2" y2="1395.4"/>
		<g>
			<path class="st7" d="M188.6,1361.4c1.4-6.4,7.7-10.4,14.1-9l176.7,39.2l-39.2-176.7c-1.4-6.4,2.6-12.7,9-14.1
				c6.4-1.4,12.7,2.7,14.1,9l43.2,194.8c0.9,3.9-0.3,8.1-3.2,10.9c-2.9,2.9-7,4.1-10.9,3.2l-194.8-43.2c-2.3-0.5-4.3-1.6-5.8-3.2
				C189.1,1369.5,187.7,1365.5,188.6,1361.4z"/>
		</g>
	</g>
</g>
<g>
	<g>
		<path class="st7" d="M83.4,102.8h-3c-0.8,0-1.4-0.3-2-0.8c-0.5-0.5-0.8-1.2-0.8-2c0-0.2,0-0.5,0.1-0.7l1.4-5.3
			c0.4-1.6,1.2-2.7,2.4-3.1c0.6-0.2,1.3-0.4,2.2-0.4h2.5c0.6,0,0.9,0.3,0.9,0.9c0,0.6-0.3,0.9-0.9,0.9h-3c-1.2,0-2,0.6-2.3,1.8
			l-1.4,5.3c-0.1,0.3-0.1,0.5-0.1,0.6c0,0.8,0.5,1.2,1.4,1.2h2.5c0.6,0,0.9,0.3,0.9,0.9S84,102.8,83.4,102.8z"/>
		<path class="st7" d="M200,98.4l0.9-3.5c0.4-1.6,1.1-2.7,1.9-3.4c0.9-0.7,2.1-1,3.8-1c1.6,0,2.6,0.7,3.2,2.1
			c0.2,0.4,0.3,0.9,0.3,1.3c0,0.3,0,0.7-0.1,1l-0.9,3.5c-0.5,2.1-1.5,3.4-3,3.9c-0.7,0.3-1.7,0.4-2.7,0.4c-1,0-1.8-0.3-2.5-1
			c-0.7-0.7-1-1.5-1-2.4C199.9,99,199.9,98.7,200,98.4z M207.2,98.4l0.9-3.5c0.1-0.4,0.1-0.7,0.1-1c0-1.1-0.7-1.6-2.1-1.6
			c-1.8,0-3,0.9-3.4,2.6l-0.9,3.5c-0.1,0.4-0.1,0.7-0.1,1c0,1.1,0.7,1.6,2.1,1.6C205.6,101,206.8,100.2,207.2,98.4z"/>
		<path class="st7" d="M325.4,91.2c0.1-0.4,0.4-0.7,0.8-0.7h5.4c0.6,0,0.9,0.3,0.9,0.9c0,0.1,0,0.2,0,0.2l-0.5,1.8
			c-0.1,0.4-0.4,0.6-0.8,0.6c-0.2,0-0.4-0.1-0.6-0.3c-0.2-0.2-0.3-0.4-0.3-0.6c0-0.1,0-0.2,0-0.3l0.2-0.6H327l-2.7,9.9
			c-0.1,0.4-0.4,0.6-0.8,0.6c-0.2,0-0.4-0.1-0.6-0.3c-0.2-0.2-0.3-0.4-0.3-0.6c0-0.1,0-0.2,0-0.3L325.4,91.2z"/>
		<path class="st7" d="M455.3,94.9l-0.7,2.6h-7.2l-0.5,1.8c-0.1,0.2-0.1,0.4-0.1,0.6c0,0.7,0.5,1.1,1.4,1.1h4.3
			c0.6,0,0.9,0.3,0.9,0.9s-0.3,0.9-0.9,0.9h-4.8c-0.8,0-1.4-0.3-2-0.8c-0.5-0.5-0.8-1.2-0.8-2c0-0.2,0-0.5,0.1-0.7l1.2-4.4
			c0.4-1.6,1.1-2.7,1.9-3.4s2.1-1,3.8-1c1.6,0,2.6,0.7,3.2,2.1c0.2,0.4,0.3,0.9,0.3,1.3C455.4,94.3,455.4,94.6,455.3,94.9z
			 M453.5,94.9c0.1-0.4,0.1-0.7,0.1-1c0-1.1-0.7-1.7-2.1-1.7c-1.8,0-2.9,0.9-3.4,2.6l-0.2,0.9h5.4L453.5,94.9z"/>
		<path class="st7" d="M572.3,101c0.6,0,0.9,0.3,0.9,0.9s-0.3,0.9-0.9,0.9c-0.6,0-1.2-0.2-1.6-0.6s-0.7-0.9-0.7-1.5
			c0-0.2,0-0.4,0.1-0.5l3.8-14.2c0.1-0.4,0.4-0.6,0.8-0.6c0.6,0,0.9,0.3,0.9,0.9c0,0.1,0,0.2,0,0.3l-3.7,13.8c0,0.2-0.1,0.3-0.1,0.4
			C571.8,100.9,571.9,101,572.3,101z"/>
		<path class="st7" d="M697.6,102.8h-4.8c-0.8,0-1.4-0.3-1.9-0.8c-0.5-0.5-0.8-1.2-0.8-2c0-1.4,0.4-2.4,1.3-3.2
			c0.8-0.7,1.9-1.1,3.3-1.1h3.6l0.5-1.8c0.1-0.2,0.1-0.4,0.1-0.6c0-0.7-0.5-1.1-1.4-1.1H694c-0.6,0-0.9-0.3-0.9-0.9
			c0-0.6,0.3-0.9,0.9-0.9h3.9c0.8,0,1.4,0.3,2,0.8s0.8,1.2,0.8,2c0,0.2,0,0.5-0.1,0.7l-2.2,8.1C698.3,102.6,698,102.8,697.6,102.8z
			 M697.8,97.5h-3.6c-0.7,0-1.3,0.2-1.7,0.7c-0.4,0.4-0.7,1-0.7,1.7c0,0.7,0.5,1.1,1.4,1.1h3.6L697.8,97.5z"/>
		<path class="st7" d="M821.2,92.3h-3l-2.6,9.9c-0.1,0.4-0.4,0.6-0.8,0.6c-0.2,0-0.4-0.1-0.6-0.3c-0.2-0.2-0.3-0.4-0.3-0.6
			c0-0.1,0-0.2,0-0.3l2.5-9.4h-0.7c-0.6,0-0.9-0.3-0.9-0.9c0-0.6,0.3-0.9,0.9-0.9h1.1l1.2-4.6c0.1-0.4,0.4-0.6,0.8-0.6
			c0.6,0,0.9,0.3,0.9,0.9c0,0.1,0,0.2,0,0.3l-1.1,4.1h2.5c0.6,0,0.9,0.3,0.9,0.9C822,92,821.8,92.3,821.2,92.3z"/>
		<path class="st7" d="M945.6,94.9l-0.7,2.6h-7.2l-0.5,1.8c-0.1,0.2-0.1,0.4-0.1,0.6c0,0.7,0.5,1.1,1.4,1.1h4.3
			c0.6,0,0.9,0.3,0.9,0.9s-0.3,0.9-0.9,0.9h-4.8c-0.8,0-1.4-0.3-2-0.8c-0.5-0.5-0.8-1.2-0.8-2c0-0.2,0-0.5,0.1-0.7l1.2-4.4
			c0.4-1.6,1.1-2.7,1.9-3.4c0.9-0.7,2.1-1,3.8-1c1.6,0,2.6,0.7,3.2,2.1c0.2,0.4,0.3,0.9,0.3,1.3C945.8,94.3,945.7,94.6,945.6,94.9z
			 M943.8,94.9c0.1-0.4,0.1-0.7,0.1-1c0-1.1-0.7-1.7-2.1-1.7c-1.8,0-2.9,0.9-3.4,2.6l-0.2,0.9h5.4L943.8,94.9z"/>
		<path class="st7" d="M1064.4,102.8h-4.8c-0.8,0-1.4-0.3-2-0.8c-0.5-0.5-0.8-1.2-0.8-2c0-0.2,0-0.5,0.1-0.7l1.4-5.3
			c0.3-1.3,0.9-2.2,1.6-2.7c0.7-0.5,1.7-0.8,3-0.8h3.6l1.2-4.6c0.1-0.4,0.4-0.6,0.8-0.6c0.6,0,0.9,0.3,0.9,0.9c0,0.1,0,0.2,0,0.3
			l-4.2,15.7C1065.1,102.6,1064.8,102.8,1064.4,102.8z M1062.4,92.3c-1.2,0-2,0.6-2.3,1.8l-1.4,5.3c-0.1,0.2-0.1,0.4-0.1,0.6
			c0,0.8,0.5,1.1,1.4,1.1h3.6l2.3-8.8H1062.4z"/>
	</g>
	<g>
		<g>
			<path d="M73.1,92.5h-3c-0.8,0-1.4-0.3-2-0.8c-0.5-0.5-0.8-1.2-0.8-2c0-0.2,0-0.5,0.1-0.7l1.4-5.3c0.4-1.6,1.2-2.7,2.4-3.1
				c0.6-0.2,1.3-0.4,2.2-0.4H76c0.6,0,0.9,0.3,0.9,0.9c0,0.6-0.3,0.9-0.9,0.9h-3c-1.2,0-2,0.6-2.3,1.8L69.3,89
				c-0.1,0.3-0.1,0.5-0.1,0.6c0,0.8,0.5,1.2,1.4,1.2h2.5c0.6,0,0.9,0.3,0.9,0.9S73.7,92.5,73.1,92.5z"/>
			<path d="M189.7,88.1l0.9-3.5c0.4-1.6,1.1-2.7,1.9-3.4c0.9-0.7,2.1-1,3.8-1c1.6,0,2.6,0.7,3.2,2.1c0.2,0.4,0.3,0.9,0.3,1.3
				c0,0.3,0,0.7-0.1,1l-0.9,3.5c-0.5,2.1-1.5,3.4-3,3.9c-0.7,0.3-1.7,0.4-2.7,0.4c-1,0-1.8-0.3-2.5-1c-0.7-0.7-1-1.5-1-2.4
				C189.6,88.8,189.7,88.4,189.7,88.1z M197,88.1l0.9-3.5c0.1-0.4,0.1-0.7,0.1-1c0-1.1-0.7-1.6-2.1-1.6c-1.8,0-3,0.9-3.4,2.6
				l-0.9,3.5c-0.1,0.4-0.1,0.7-0.1,1c0,1.1,0.7,1.6,2.1,1.6C195.4,90.8,196.5,89.9,197,88.1z"/>
			<path d="M315.2,80.9c0.1-0.4,0.4-0.7,0.8-0.7h5.4c0.6,0,0.9,0.3,0.9,0.9c0,0.1,0,0.2,0,0.2l-0.5,1.8c-0.1,0.4-0.4,0.6-0.8,0.6
				c-0.2,0-0.4-0.1-0.6-0.3c-0.2-0.2-0.3-0.4-0.3-0.6c0-0.1,0-0.2,0-0.3l0.2-0.6h-3.6l-2.7,9.9c-0.1,0.4-0.4,0.6-0.8,0.6
				c-0.2,0-0.4-0.1-0.6-0.3c-0.2-0.2-0.3-0.4-0.3-0.6c0-0.1,0-0.2,0-0.3L315.2,80.9z"/>
			<path d="M445,84.6l-0.7,2.6h-7.2l-0.5,1.8c-0.1,0.2-0.1,0.4-0.1,0.6c0,0.7,0.5,1.1,1.4,1.1h4.3c0.6,0,0.9,0.3,0.9,0.9
				s-0.3,0.9-0.9,0.9h-4.8c-0.8,0-1.4-0.3-2-0.8c-0.5-0.5-0.8-1.2-0.8-2c0-0.2,0-0.5,0.1-0.7l1.2-4.4c0.4-1.6,1.1-2.7,1.9-3.4
				s2.1-1,3.8-1c1.6,0,2.6,0.7,3.2,2.1c0.2,0.4,0.3,0.9,0.3,1.3C445.1,84,445.1,84.3,445,84.6z M443.2,84.6c0.1-0.4,0.1-0.7,0.1-1
				c0-1.1-0.7-1.7-2.1-1.7c-1.8,0-2.9,0.9-3.4,2.6l-0.2,0.9h5.4L443.2,84.6z"/>
			<path d="M562,90.8c0.6,0,0.9,0.3,0.9,0.9s-0.3,0.9-0.9,0.9c-0.6,0-1.2-0.2-1.6-0.6s-0.7-0.9-0.7-1.5c0-0.2,0-0.4,0.1-0.5
				l3.8-14.2c0.1-0.4,0.4-0.6,0.8-0.6c0.6,0,0.9,0.3,0.9,0.9c0,0.1,0,0.2,0,0.3l-3.7,13.8c0,0.2-0.1,0.3-0.1,0.4
				C561.5,90.6,561.7,90.8,562,90.8z"/>
			<path d="M687.3,92.5h-4.8c-0.8,0-1.4-0.3-1.9-0.8c-0.5-0.5-0.8-1.2-0.8-2c0-1.4,0.4-2.4,1.3-3.2c0.8-0.7,1.9-1.1,3.3-1.1h3.6
				l0.5-1.8c0.1-0.2,0.1-0.4,0.1-0.6c0-0.7-0.5-1.1-1.4-1.1h-3.4c-0.6,0-0.9-0.3-0.9-0.9c0-0.6,0.3-0.9,0.9-0.9h3.9
				c0.8,0,1.4,0.3,2,0.8s0.8,1.2,0.8,2c0,0.2,0,0.5-0.1,0.7l-2.2,8.1C688,92.3,687.7,92.5,687.3,92.5z M687.6,87.3H684
				c-0.7,0-1.3,0.2-1.7,0.7c-0.4,0.4-0.7,1-0.7,1.7c0,0.7,0.5,1.1,1.4,1.1h3.6L687.6,87.3z"/>
			<path d="M810.9,82h-3l-2.6,9.9c-0.1,0.4-0.4,0.6-0.8,0.6c-0.2,0-0.4-0.1-0.6-0.3c-0.2-0.2-0.3-0.4-0.3-0.6c0-0.1,0-0.2,0-0.3
				l2.5-9.4h-0.7c-0.6,0-0.9-0.3-0.9-0.9c0-0.6,0.3-0.9,0.9-0.9h1.1l1.2-4.6c0.1-0.4,0.4-0.6,0.8-0.6c0.6,0,0.9,0.3,0.9,0.9
				c0,0.1,0,0.2,0,0.3l-1.1,4.1h2.5c0.6,0,0.9,0.3,0.9,0.9C811.8,81.7,811.5,82,810.9,82z"/>
			<path d="M935.4,84.6l-0.7,2.6h-7.2L927,89c-0.1,0.2-0.1,0.4-0.1,0.6c0,0.7,0.5,1.1,1.4,1.1h4.3c0.6,0,0.9,0.3,0.9,0.9
				s-0.3,0.9-0.9,0.9h-4.8c-0.8,0-1.4-0.3-2-0.8c-0.5-0.5-0.8-1.2-0.8-2c0-0.2,0-0.5,0.1-0.7l1.2-4.4c0.4-1.6,1.1-2.7,1.9-3.4
				c0.9-0.7,2.1-1,3.8-1c1.6,0,2.6,0.7,3.2,2.1c0.2,0.4,0.3,0.9,0.3,1.3C935.5,84,935.5,84.3,935.4,84.6z M933.6,84.6
				c0.1-0.4,0.1-0.7,0.1-1c0-1.1-0.7-1.7-2.1-1.7c-1.8,0-2.9,0.9-3.4,2.6l-0.2,0.9h5.4L933.6,84.6z"/>
			<path d="M1054.1,92.5h-4.8c-0.8,0-1.4-0.3-2-0.8c-0.5-0.5-0.8-1.2-0.8-2c0-0.2,0-0.5,0.1-0.7l1.4-5.3c0.3-1.3,0.9-2.2,1.6-2.7
				c0.7-0.5,1.7-0.8,3-0.8h3.6l1.2-4.6c0.1-0.4,0.4-0.6,0.8-0.6c0.6,0,0.9,0.3,0.9,0.9c0,0.1,0,0.2,0,0.3l-4.2,15.7
				C1054.8,92.3,1054.5,92.5,1054.1,92.5z M1052.2,82c-1.2,0-2,0.6-2.3,1.8l-1.4,5.3c-0.1,0.2-0.1,0.4-0.1,0.6
				c0,0.8,0.5,1.1,1.4,1.1h3.6l2.3-8.8H1052.2z"/>
		</g>
	</g>
</g>
</svg>
