<?xml version="1.0" encoding="utf-8"?>
<!-- Generator: Adobe Illustrator 26.5.2, SVG Export Plug-In . SVG Version: 6.00 Build 0)  -->
<svg version="1.1" id="Layer_1" xmlns="http://www.w3.org/2000/svg" xmlns:xlink="http://www.w3.org/1999/xlink" x="0px" y="0px"
	 viewBox="0 0 1125 2000" style="enable-background:new 0 0 1125 2000;" xml:space="preserve">
<style type="text/css">
	.st0{fill:#FFFFFF;stroke:#231F20;stroke-width:9.8565;stroke-miterlimit:15.1182;}
	.st1{fill:#00FF00;stroke:#333333;stroke-width:11.8282;stroke-miterlimit:15.1184;}
	.st2{fill:none;stroke:#FFFFFF;stroke-width:15.7704;stroke-miterlimit:4.48;}
	.st3{fill:none;stroke:#FFFFFF;stroke-width:15.7704;stroke-miterlimit:4.48;stroke-dasharray:39.9678,39.9678;}
	.st4{fill:#FFFFFF;}
	.st5{fill:none;stroke:#00FF00;stroke-width:23.6556;stroke-miterlimit:4.48;}
	.st6{fill:#00FF00;}
</style>
<g id="Layer_2_00000053523471873209729280000008042567905082077332_">
</g>
<g id="Layer_1_00000019680401955176514420000004619620175400996504_">
	<g id="d">
	</g>
	<g id="c_00000127739083478902209600000003261662352687320241_" transform="translate(-78.321 .3026)">
		<g transform="translate(92.574 -24.591)">
			<circle id="a_00000177461607322864558490000013071854765041562761_" class="st0" cx="476.5" cy="1740.3" r="51.3"/>
		</g>
		<g transform="translate(89.947 -15.894)">
			<circle id="a_00000023247607381324480880000001632976004158163867_" class="st0" cx="554.8" cy="1481.1" r="51.3"/>
		</g>
		<g transform="translate(1.9858 -14.764)">
			<g transform="translate(73.288 -5.916)">
				
					<ellipse id="b_00000033365033539467542050000001663103973732552375_" transform="matrix(1 -3.875813e-03 3.875813e-03 1 -6.3453 2.706)" class="st1" cx="695" cy="1638.5" rx="53.2" ry="53.2"/>
			</g>
			<g transform="translate(74.29 -8.9654)">
				
					<ellipse id="b_00000088113171630768486950000008987032991532775848_" transform="matrix(1 -3.875794e-03 3.875794e-03 1 -6.6979 2.5908)" class="st1" cx="665.1" cy="1729.4" rx="53.2" ry="53.2"/>
			</g>
			<g transform="translate(78.726 -7.4314)">
				
					<ellipse id="b_00000030474518766562858100000005824429274251394446_" transform="matrix(1 -3.875858e-03 3.875858e-03 1 -6.5218 2.0781)" class="st1" cx="532.9" cy="1683.7" rx="53.2" ry="53.2"/>
			</g>
			<g transform="translate(77.734 -4.7797)">
				
					<ellipse id="b_00000083090524268332543170000008439931114164480430_" transform="matrix(1 -3.875863e-03 3.875863e-03 1 -6.2154 2.1922)" class="st1" cx="562.5" cy="1604.7" rx="53.2" ry="53.2"/>
			</g>
			<g transform="translate(74.76 -4.6916)">
				
					<ellipse id="b_00000157305409695162077450000017577997774439822741_" transform="matrix(1 -3.875811e-03 3.875811e-03 1 -6.2042 2.5356)" class="st1" cx="651.1" cy="1602" rx="53.2" ry="53.2"/>
			</g>
			<g transform="translate(75.675 -7.1949)">
				
					<ellipse id="b_00000167361965481865328630000017530329580243780502_" transform="matrix(1 -3.875810e-03 3.875810e-03 1 -6.4935 2.4303)" class="st1" cx="623.8" cy="1676.6" rx="53.2" ry="53.2"/>
			</g>
			<g transform="translate(76.818 -9.663)">
				
					<ellipse id="b_00000113331655110756060190000001187628590800907699_" transform="matrix(1 -3.875791e-03 3.875791e-03 1 -6.779 2.2991)" class="st1" cx="589.8" cy="1750.2" rx="53.2" ry="53.2"/>
			</g>
		</g>
		<g transform="translate(89.302 -22.473)">
			<circle id="a_00000123400204329748211460000004790330010519069354_" class="st0" cx="574" cy="1677.2" r="51.3"/>
		</g>
		<g transform="translate(87.085 -29.058)">
			<circle id="a_00000077321993602879845290000009351711311638173101_" class="st0" cx="640.1" cy="1873.4" r="51.3"/>
		</g>
		<g transform="translate(82.354 -16.425)">
			<circle id="a_00000020401126006127348570000013248605373590711214_" class="st0" cx="781.1" cy="1496.9" r="51.3"/>
		</g>
		<g transform="translate(82.748 -23.702)">
			<circle id="a_00000076567456585196369220000011624981288195730821_" class="st0" cx="769.3" cy="1713.8" r="51.3"/>
		</g>
	</g>
	<g>
		<g>
			<line class="st2" x1="691.9" y1="1205.7" x2="705.8" y2="1191.7"/>
			<line class="st3" x1="734.1" y1="1163.5" x2="946" y2="951.5"/>
			<line class="st2" x1="960.2" y1="937.4" x2="974.1" y2="923.4"/>
			<g>
				<path class="st4" d="M951.4,1053.2c-4.2-0.9-6.9-5.2-6-9.4L971.5,926l-117.8,26.1c-4.3,0.9-8.5-1.7-9.4-6
					c-0.9-4.2,1.8-8.5,6-9.4l129.9-28.8c2.6-0.6,5.4,0.2,7.3,2.1s2.7,4.7,2.1,7.3l-28.8,129.9c-0.3,1.5-1.1,2.8-2.1,3.9
					C956.9,1052.9,954.1,1053.8,951.4,1053.2z"/>
			</g>
		</g>
	</g>
	<g>
		<g>
			<line class="st5" x1="137.5" y1="1149.7" x2="383.2" y2="1395.4"/>
			<g>
				<path class="st6" d="M188.6,1361.4c1.4-6.4,7.7-10.4,14.1-9l176.7,39.2l-39.2-176.7c-1.4-6.4,2.6-12.7,9-14.1s12.7,2.7,14.1,9
					l43.2,194.8c0.9,3.9-0.3,8.1-3.2,10.9c-2.9,2.9-7,4.1-10.9,3.2l-194.8-43.2c-2.3-0.5-4.3-1.6-5.8-3.2
					C189.1,1369.5,187.7,1365.5,188.6,1361.4z"/>
			</g>
		</g>
	</g>
</g>
</svg>
