<?xml version="1.0" encoding="utf-8"?>
<!-- Generator: Adobe Illustrator 26.5.2, SVG Export Plug-In . SVG Version: 6.00 Build 0)  -->
<svg version="1.1" xmlns="http://www.w3.org/2000/svg" xmlns:xlink="http://www.w3.org/1999/xlink" x="0px" y="0px"
	 viewBox="0 0 1125 2000" style="enable-background:new 0 0 1125 2000;" xml:space="preserve">
<style type="text/css">
	.st0{fill:#FFFFFF;stroke:#231F20;stroke-width:9.8565;stroke-miterlimit:15.1182;}
	.st1{fill:#00FF00;stroke:#333333;stroke-width:11.8281;stroke-miterlimit:15.1183;}
	.st2{fill:none;stroke:#FFFFFF;stroke-width:15.7704;stroke-miterlimit:4.48;}
	.st3{fill:none;stroke:#FFFFFF;stroke-width:15.7704;stroke-miterlimit:4.48;stroke-dasharray:39.9678,39.9678;}
	.st4{fill:#FFFFFF;}
	.st5{fill:none;stroke:#00FF00;stroke-width:23.6556;stroke-miterlimit:4.48;}
	.st6{fill:#00FF00;}
</style>
<g id="Layer_2">
</g>
<g id="Layer_1">
	<g id="d">
	</g>
	<g id="c_00000127739083478902209600000003261662352687320241_" transform="translate(-78.321 .3026)">
		<g transform="translate(92.574 -24.591)">
			<circle id="a_00000177461607322864558490000013071854765041562761_" class="st0" cx="476.5" cy="1740.3" r="51.3"/>
		</g>
		<g transform="translate(89.947 -15.894)">
			<circle id="a_00000023247607381324480880000001632976004158163867_" class="st0" cx="554.8" cy="1481.1" r="51.3"/>
		</g>
		<g transform="translate(1.9858 -14.764)">
			<g transform="translate(73.288 -5.916)">
				
					<ellipse id="b_00000033365033539467542050000001663103973732552375_" transform="matrix(1 -3.875843e-03 3.875843e-03 1 -6.3454 2.706)" class="st1" cx="695" cy="1638.5" rx="53.2" ry="53.2"/>
			</g>
			<g transform="translate(74.29 -8.9654)">
				
					<ellipse id="b_00000088113171630768486950000008987032991532775848_" transform="matrix(1 -3.875813e-03 3.875813e-03 1 -6.6979 2.5908)" class="st1" cx="665.1" cy="1729.4" rx="53.2" ry="53.2"/>
			</g>
			<g transform="translate(78.726 -7.4314)">
				
					<ellipse id="b_00000030474518766562858100000005824429274251394446_" transform="matrix(1 -3.875882e-03 3.875882e-03 1 -6.5219 2.0781)" class="st1" cx="532.9" cy="1683.7" rx="53.2" ry="53.2"/>
			</g>
			<g transform="translate(77.734 -4.7797)">
				
					<ellipse id="b_00000083090524268332543170000008439931114164480430_" transform="matrix(1 -3.875886e-03 3.875886e-03 1 -6.2155 2.1923)" class="st1" cx="562.5" cy="1604.7" rx="53.2" ry="53.2"/>
			</g>
			<g transform="translate(74.76 -4.6916)">
				
					<ellipse id="b_00000157305409695162077450000017577997774439822741_" transform="matrix(1 -3.875832e-03 3.875832e-03 1 -6.2042 2.5356)" class="st1" cx="651.1" cy="1602" rx="53.2" ry="53.2"/>
			</g>
			<g transform="translate(75.675 -7.1949)">
				
					<ellipse id="b_00000167361965481865328630000017530329580243780502_" transform="matrix(1 -3.875840e-03 3.875840e-03 1 -6.4936 2.4304)" class="st1" cx="623.8" cy="1676.6" rx="53.2" ry="53.2"/>
			</g>
			<g transform="translate(76.818 -9.663)">
				
					<ellipse id="b_00000113331655110756060190000001187628590800907699_" transform="matrix(1 -3.875825e-03 3.875825e-03 1 -6.7791 2.2991)" class="st1" cx="589.8" cy="1750.2" rx="53.2" ry="53.2"/>
			</g>
		</g>
		<g transform="translate(89.302 -22.473)">
			<circle id="a_00000123400204329748211460000004790330010519069354_" class="st0" cx="574" cy="1677.2" r="51.3"/>
		</g>
		<g transform="translate(87.085 -29.058)">
			<circle id="a_00000077321993602879845290000009351711311638173101_" class="st0" cx="640.1" cy="1873.4" r="51.3"/>
		</g>
		<g transform="translate(82.354 -16.425)">
			<circle id="a_00000020401126006127348570000013248605373590711214_" class="st0" cx="781.1" cy="1496.9" r="51.3"/>
		</g>
		<g transform="translate(82.748 -23.702)">
			<circle id="a_00000076567456585196369220000011624981288195730821_" class="st0" cx="769.3" cy="1713.8" r="51.3"/>
		</g>
	</g>
	<g>
		<g>
			<line class="st2" x1="691.9" y1="1205.7" x2="705.8" y2="1191.7"/>
			<line class="st3" x1="734.1" y1="1163.5" x2="946" y2="951.5"/>
			<line class="st2" x1="960.2" y1="937.4" x2="974.1" y2="923.4"/>
			<g>
				<path class="st4" d="M951.4,1053.2c-4.2-0.9-6.9-5.2-6-9.4L971.5,926l-117.8,26.1c-4.3,0.9-8.5-1.7-9.4-6
					c-0.9-4.2,1.8-8.5,6-9.4l129.9-28.8c2.6-0.6,5.4,0.2,7.3,2.1s2.7,4.7,2.1,7.3l-28.8,129.9c-0.3,1.5-1.1,2.8-2.1,3.9
					C956.9,1052.9,954.1,1053.8,951.4,1053.2z"/>
			</g>
		</g>
	</g>
	<g>
		<g>
			<line class="st5" x1="137.5" y1="1149.7" x2="383.2" y2="1395.4"/>
			<g>
				<path class="st6" d="M188.6,1361.4c1.4-6.4,7.7-10.4,14.1-9l176.7,39.2l-39.2-176.7c-1.4-6.4,2.6-12.7,9-14.1s12.7,2.7,14.1,9
					l43.2,194.8c0.9,3.9-0.3,8.1-3.2,10.9c-2.9,2.9-7,4.1-10.9,3.2l-194.8-43.2c-2.3-0.5-4.3-1.6-5.8-3.2
					C189.1,1369.5,187.7,1365.5,188.6,1361.4z"/>
			</g>
		</g>
	</g>
	<g>
		<g>
			<path class="st6" d="M73.5,110.7h-4.4c-1.2,0-2-0.4-2.9-1.2c-0.7-0.7-1.2-1.7-1.2-2.9c0-0.3,0-0.7,0.1-1l2-7.7
				c0.6-2.3,1.7-3.9,3.5-4.5c0.9-0.3,1.9-0.6,3.2-0.6h3.6c0.9,0,1.3,0.4,1.3,1.3c0,0.9-0.4,1.3-1.3,1.3h-4.4c-1.7,0-2.9,0.9-3.4,2.6
				l-2,7.7c-0.1,0.4-0.1,0.7-0.1,0.9c0,1.2,0.7,1.7,2,1.7h3.6c0.9,0,1.3,0.4,1.3,1.3S74.3,110.7,73.5,110.7z"/>
			<path class="st6" d="M189.1,104.4l1.3-5.1c0.6-2.3,1.6-3.9,2.8-5c1.3-1,3.1-1.5,5.5-1.5c2.3,0,3.8,1,4.7,3.1
				c0.3,0.6,0.4,1.3,0.4,1.9c0,0.4,0,1-0.1,1.5l-1.3,5.1c-0.7,3.1-2.2,5-4.4,5.7c-1,0.4-2.5,0.6-3.9,0.6c-1.5,0-2.6-0.4-3.6-1.5
				s-1.5-2.2-1.5-3.5C189,105.3,189,104.8,189.1,104.4z M199.6,104.4l1.3-5.1c0.1-0.6,0.1-1,0.1-1.5c0-1.6-1-2.3-3.1-2.3
				c-2.6,0-4.4,1.3-5,3.8l-1.3,5.1c-0.1,0.6-0.1,1-0.1,1.5c0,1.6,1,2.3,3.1,2.3C197.3,108.2,199,107,199.6,104.4z"/>
			<path class="st6" d="M317,93.9c0.1-0.6,0.6-1,1.2-1h7.9c0.9,0,1.3,0.4,1.3,1.3c0,0.1,0,0.3,0,0.3l-0.7,2.6
				c-0.1,0.6-0.6,0.9-1.2,0.9c-0.3,0-0.6-0.1-0.9-0.4c-0.3-0.3-0.4-0.6-0.4-0.9c0-0.1,0-0.3,0-0.4l0.3-0.9h-5.1l-3.9,14.4
				c-0.1,0.6-0.6,0.9-1.2,0.9c-0.3,0-0.6-0.1-0.9-0.4s-0.4-0.6-0.4-0.9c0-0.1,0-0.3,0-0.4L317,93.9z"/>
			<path class="st6" d="M452,99.2l-1,3.8h-10.5l-0.7,2.6c-0.1,0.3-0.1,0.6-0.1,0.9c0,1,0.7,1.6,2,1.6h6.3c0.9,0,1.3,0.4,1.3,1.3
				c0,0.9-0.4,1.3-1.3,1.3h-7c-1.2,0-2-0.4-2.9-1.2c-0.7-0.7-1.2-1.7-1.2-2.9c0-0.3,0-0.7,0.1-1l1.7-6.4c0.6-2.3,1.6-3.9,2.8-5
				c1.2-1,3.1-1.5,5.5-1.5c2.3,0,3.8,1,4.7,3.1c0.3,0.6,0.4,1.3,0.4,1.9C452.2,98.3,452.2,98.7,452,99.2z M449.4,99.2
				c0.1-0.6,0.1-1,0.1-1.5c0-1.6-1-2.5-3.1-2.5c-2.6,0-4.2,1.3-5,3.8l-0.3,1.3h7.9L449.4,99.2z"/>
			<path class="st6" d="M564.2,108c0.9,0,1.3,0.4,1.3,1.3c0,0.9-0.4,1.3-1.3,1.3c-0.9,0-1.7-0.3-2.3-0.9c-0.6-0.6-1-1.3-1-2.2
				c0-0.3,0-0.6,0.1-0.7l5.5-20.7c0.1-0.6,0.6-0.9,1.2-0.9c0.9,0,1.3,0.4,1.3,1.3c0,0.1,0,0.3,0,0.4l-5.4,20.1
				c0,0.3-0.1,0.4-0.1,0.6C563.4,107.9,563.6,108,564.2,108z"/>
			<path class="st6" d="M695.7,110.7h-7c-1.2,0-2-0.4-2.8-1.2c-0.7-0.7-1.2-1.7-1.2-2.9c0-2,0.6-3.5,1.9-4.7c1.2-1,2.8-1.6,4.8-1.6
				h5.2l0.7-2.6c0.1-0.3,0.1-0.6,0.1-0.9c0-1-0.7-1.6-2-1.6h-5.1c-0.9,0-1.3-0.4-1.3-1.3s0.4-1.3,1.3-1.3h5.7c1.2,0,2,0.4,2.9,1.2
				c0.9,0.7,1.2,1.7,1.2,2.9c0,0.3,0,0.7-0.1,1l-3.2,11.8C696.7,110.4,696.3,110.7,695.7,110.7z M696,102.9h-5.2c-1,0-1.9,0.3-2.5,1
				c-0.6,0.6-1,1.5-1,2.5s0.7,1.6,2,1.6h5.2L696,102.9z"/>
			<path class="st6" d="M819.4,95.4H815l-3.8,14.4c-0.1,0.6-0.6,0.9-1.2,0.9c-0.3,0-0.6-0.1-0.9-0.4c-0.3-0.3-0.4-0.6-0.4-0.9
				c0-0.1,0-0.3,0-0.4l3.6-13.7h-1c-0.9,0-1.3-0.4-1.3-1.3c0-0.9,0.4-1.3,1.3-1.3h1.6l1.7-6.7c0.1-0.6,0.6-0.9,1.2-0.9
				c0.9,0,1.3,0.4,1.3,1.3c0,0.1,0,0.3,0,0.4l-1.6,6h3.6c0.9,0,1.3,0.4,1.3,1.3C820.5,94.9,820.2,95.4,819.4,95.4z"/>
			<path class="st6" d="M947.7,99.2l-1,3.8h-10.5l-0.7,2.6c-0.1,0.3-0.1,0.6-0.1,0.9c0,1,0.7,1.6,2,1.6h6.3c0.9,0,1.3,0.4,1.3,1.3
				c0,0.9-0.4,1.3-1.3,1.3h-7c-1.2,0-2-0.4-2.9-1.2c-0.7-0.7-1.2-1.7-1.2-2.9c0-0.3,0-0.7,0.1-1l1.7-6.4c0.6-2.3,1.6-3.9,2.8-5
				c1.3-1,3.1-1.5,5.5-1.5c2.3,0,3.8,1,4.7,3.1c0.3,0.6,0.4,1.3,0.4,1.9C948,98.3,947.8,98.7,947.7,99.2z M945.1,99.2
				c0.1-0.6,0.1-1,0.1-1.5c0-1.6-1-2.5-3.1-2.5c-2.6,0-4.2,1.3-5,3.8l-0.3,1.3h7.9L945.1,99.2z"/>
			<path class="st6" d="M1067.7,110.7h-7c-1.2,0-2-0.4-2.9-1.2c-0.7-0.7-1.2-1.7-1.2-2.9c0-0.3,0-0.7,0.1-1l2-7.7
				c0.4-1.9,1.3-3.2,2.3-3.9c1-0.7,2.5-1.2,4.4-1.2h5.2l1.7-6.7c0.1-0.6,0.6-0.9,1.2-0.9c0.9,0,1.3,0.4,1.3,1.3c0,0.1,0,0.3,0,0.4
				l-6.1,22.9C1068.7,110.4,1068.3,110.7,1067.7,110.7z M1064.8,95.4c-1.7,0-2.9,0.9-3.4,2.6l-2,7.7c-0.1,0.3-0.1,0.6-0.1,0.9
				c0,1.2,0.7,1.6,2,1.6h5.2l3.4-12.8H1064.8z"/>
		</g>
		<g>
			<g>
				<path d="M58.5,95.7h-4.4c-1.2,0-2-0.4-2.9-1.2c-0.7-0.7-1.2-1.7-1.2-2.9c0-0.3,0-0.7,0.1-1l2-7.7c0.6-2.3,1.7-3.9,3.5-4.5
					c0.9-0.3,1.9-0.6,3.2-0.6h3.8c0.9,0,1.3,0.4,1.3,1.3s-0.4,1.3-1.3,1.3h-4.4c-1.7,0-2.9,0.9-3.4,2.6l-2,7.6
					c-0.1,0.4-0.1,0.7-0.1,0.9c0,1.2,0.7,1.7,2,1.7h3.6c0.9,0,1.3,0.4,1.3,1.3C59.8,95.4,59.3,95.7,58.5,95.7z"/>
				<path d="M174.1,89.4l1.3-5.1c0.6-2.3,1.6-3.9,2.8-5c1.3-1,3.1-1.5,5.5-1.5c2.3,0,3.8,1,4.7,3.1c0.3,0.6,0.4,1.3,0.4,1.9
					c0,0.4,0,1-0.1,1.5l-1.3,5.1c-0.7,3.1-2.2,5-4.4,5.7c-1,0.4-2.5,0.6-3.9,0.6c-1.5,0-2.6-0.4-3.6-1.5S174,92,174,90.7
					C174,90.4,174.1,89.8,174.1,89.4z M184.7,89.4l1.3-5.1c0.1-0.6,0.1-1,0.1-1.5c0-1.6-1-2.3-3.1-2.3c-2.6,0-4.4,1.3-5,3.8
					l-1.3,5.1c-0.1,0.6-0.1,1-0.1,1.5c0,1.6,1,2.3,3.1,2.3C182.4,93.3,184,92,184.7,89.4z"/>
				<path d="M302.1,78.9c0.1-0.6,0.6-1,1.2-1h7.9c0.9,0,1.3,0.4,1.3,1.3c0,0.1,0,0.3,0,0.3l-0.7,2.6c-0.1,0.6-0.6,0.9-1.2,0.9
					c-0.3,0-0.6-0.1-0.9-0.4c-0.3-0.3-0.4-0.6-0.4-0.9c0-0.1,0-0.3,0-0.4l0.3-0.9h-5.2l-3.9,14.4c-0.1,0.6-0.6,0.9-1.2,0.9
					c-0.3,0-0.6-0.1-0.9-0.4s-0.4-0.6-0.4-0.9c0-0.1,0-0.3,0-0.4L302.1,78.9z"/>
				<path d="M437,84.1l-1,3.8h-10.5l-0.7,2.6c-0.1,0.3-0.1,0.6-0.1,0.9c0,1,0.7,1.6,2,1.6h6.3c0.9,0,1.3,0.4,1.3,1.3
					c0,0.9-0.4,1.3-1.3,1.3h-7c-1.2,0-2-0.4-2.9-1.2c-0.7-0.7-1.2-1.7-1.2-2.9c0-0.3,0-0.7,0.1-1l1.7-6.4c0.6-2.3,1.6-3.9,2.8-5
					c1.2-1,3.1-1.5,5.5-1.5c2.3,0,3.8,1,4.7,3.1c0.3,0.6,0.4,1.3,0.4,1.9C437.2,83.3,437.2,83.7,437,84.1z M434.4,84.1
					c0.1-0.6,0.1-1,0.1-1.5c0-1.6-1-2.5-3.1-2.5c-2.6,0-4.2,1.3-5,3.8l-0.3,1.3h7.9L434.4,84.1z"/>
				<path d="M549.2,93.2c0.9,0,1.3,0.4,1.3,1.3s-0.4,1.3-1.3,1.3c-0.9,0-1.7-0.3-2.3-0.9c-0.6-0.6-1-1.3-1-2.2c0-0.3,0-0.6,0.1-0.7
					l5.5-20.7c0.1-0.6,0.6-0.9,1.2-0.9c0.9,0,1.3,0.4,1.3,1.3c0,0.1,0,0.3,0,0.4l-5.4,20.1c0,0.3-0.1,0.4-0.1,0.6
					C548.4,92.9,548.7,93.2,549.2,93.2z"/>
				<path d="M680.7,95.7h-7c-1.2,0-2-0.4-2.8-1.2c-0.7-0.7-1.2-1.7-1.2-2.9c0-2,0.6-3.5,1.9-4.7c1.2-1,2.8-1.6,4.8-1.6h5.2l0.7-2.6
					c0.1-0.3,0.1-0.6,0.1-0.9c0-1-0.7-1.6-2-1.6h-5c-0.9,0-1.3-0.4-1.3-1.3c0-0.9,0.4-1.3,1.3-1.3h5.7c1.2,0,2,0.4,2.9,1.2
					c0.9,0.7,1.2,1.7,1.2,2.9c0,0.3,0,0.7-0.1,1L682,94.5C681.7,95.4,681.3,95.7,680.7,95.7z M681.1,88.1h-5.2c-1,0-1.9,0.3-2.5,1
					c-0.6,0.6-1,1.5-1,2.5s0.7,1.6,2,1.6h5.2L681.1,88.1z"/>
				<path d="M804.4,80.3H800l-3.8,14.4c-0.1,0.6-0.6,0.9-1.2,0.9c-0.3,0-0.6-0.1-0.9-0.4c-0.3-0.3-0.4-0.6-0.4-0.9
					c0-0.1,0-0.3,0-0.4l3.6-13.7h-1c-0.9,0-1.3-0.4-1.3-1.3s0.4-1.3,1.3-1.3h1.6l1.7-6.7c0.1-0.6,0.6-0.9,1.2-0.9
					c0.9,0,1.3,0.4,1.3,1.3c0,0.1,0,0.3,0,0.4l-1.6,6h3.6c0.9,0,1.3,0.4,1.3,1.3C805.7,79.9,805.2,80.3,804.4,80.3z"/>
				<path d="M932.8,84.1l-1,3.8h-10.5l-0.7,2.6c-0.1,0.3-0.1,0.6-0.1,0.9c0,1,0.7,1.6,2,1.6h6.3c0.9,0,1.3,0.4,1.3,1.3
					c0,0.9-0.4,1.3-1.3,1.3h-7c-1.2,0-2-0.4-2.9-1.2c-0.7-0.7-1.2-1.7-1.2-2.9c0-0.3,0-0.7,0.1-1l1.7-6.4c0.6-2.3,1.6-3.9,2.8-5
					c1.3-1,3.1-1.5,5.5-1.5c2.3,0,3.8,1,4.7,3.1c0.3,0.6,0.4,1.3,0.4,1.9C933,83.3,933,83.7,932.8,84.1z M930.2,84.1
					c0.1-0.6,0.1-1,0.1-1.5c0-1.6-1-2.5-3.1-2.5c-2.6,0-4.2,1.3-5,3.8l-0.3,1.3h7.9L930.2,84.1z"/>
				<path d="M1052.7,95.7h-7c-1.2,0-2-0.4-2.9-1.2c-0.7-0.7-1.2-1.7-1.2-2.9c0-0.3,0-0.7,0.1-1l2-7.7c0.4-1.9,1.3-3.2,2.3-3.9
					c1-0.7,2.5-1.2,4.4-1.2h5.2l1.7-6.7c0.1-0.6,0.6-0.9,1.2-0.9c0.9,0,1.3,0.4,1.3,1.3c0,0.1,0,0.3,0,0.4l-6.1,22.9
					C1053.7,95.4,1053.3,95.7,1052.7,95.7z M1049.9,80.3c-1.7,0-2.9,0.9-3.4,2.6l-2,7.7c-0.1,0.3-0.1,0.6-0.1,0.9
					c0,1.2,0.7,1.6,2,1.6h5.2l3.4-12.8H1049.9z"/>
			</g>
		</g>
	</g>
</g>
</svg>
