<?xml version="1.0" encoding="utf-8"?>
<!-- Generator: Adobe Illustrator 26.5.2, SVG Export Plug-In . SVG Version: 6.00 Build 0)  -->
<svg version="1.1" xmlns="http://www.w3.org/2000/svg" xmlns:xlink="http://www.w3.org/1999/xlink" x="0px" y="0px"
	 viewBox="0 0 1125 1106.8" style="enable-background:new 0 0 1125 1106.8;" xml:space="preserve">
<style type="text/css">
	.st0{fill:none;stroke:#231F20;stroke-width:1.25;}
</style>
<g id="Layer_1">
</g>
<g id="Fixed_Elements">
	<g>
		<path class="st0" d="M311.7,133.3c4.7,0,9.4,0,14.1,0c0,1.9-0.7,3.7-2.1,5c-1.3,1.3-3.1,2.1-5,2.1c-1.9,0-3.7-0.7-5-2.1
			C312.4,136.9,311.7,135.1,311.7,133.3z"/>
		<line class="st0" x1="614.5" y1="140.3" x2="614.5" y2="151.4"/>
		<path class="st0" d="M607.5,133.3c4.7,0,9.4,0,14.1,0c0,1.9-0.7,3.7-2.1,5c-1.3,1.3-3.1,2.1-5,2.1s-3.7-0.7-5-2.1
			C608.3,136.9,607.5,135.1,607.5,133.3z"/>
		<line class="st0" x1="843.1" y1="140.3" x2="843.1" y2="151.4"/>
		<path class="st0" d="M836,133.3c4.7,0,9.4,0,14.1,0c0,1.9-0.7,3.7-2.1,5c-1.3,1.3-3.1,2.1-5,2.1s-3.7-0.7-5-2.1
			C836.8,136.9,836,135.1,836,133.3z"/>
		<line class="st0" x1="553.8" y1="991.4" x2="542.7" y2="991.4"/>
		<path class="st0" d="M560.9,984.4c0,4.7,0,9.4,0,14.1c-1.9,0-3.7-0.7-5-2.1c-1.3-1.3-2.1-3.1-2.1-5s0.7-3.7,2.1-5
			C557.2,985.1,559,984.4,560.9,984.4z"/>
		<line class="st0" x1="318.7" y1="140.3" x2="318.7" y2="151.4"/>
		<polyline class="st0" points="820.6,316.4 820.6,316.4 824,317.6 824.3,317.9 824.3,318.3 824,318.6 823.6,318.6 820.2,317.3 
			819.9,317.2 		"/>
		<polyline class="st0" points="814.3,295.5 816.5,290.8 816.8,290.6 817.2,290.6 817.5,290.8 817.5,291.2 815.2,295.9 		"/>
		<polyline class="st0" points="800.3,324.7 800.3,324.7 798.8,328 798.7,328.4 799,328.6 799.4,328.6 799.7,328.3 801.3,325.1 
			801.4,324.8 		"/>
		<polygon class="st0" points="781.2,298.1 781.4,298.3 781.9,298.3 783.1,298.2 785.6,298 788.5,298 791.6,298.3 792.2,298.4 
			792.8,298.7 793.1,299.3 793.2,299.8 792.4,301 791.5,302.5 789.8,306.6 788.8,311.2 788.7,314.2 790,318.8 793.6,322.5 
			797.9,324.4 802.4,324.9 806.9,324.3 811.4,322.8 815.6,320.7 819.3,318 822.1,314.5 823.9,310.1 823.9,305 821.6,300.7 
			819.4,298.7 815.5,296.1 811.5,294.3 809.8,293.9 808.4,293.6 808.1,293.1 808,292.5 808.2,291.9 808.5,291.3 810.5,289 
			812.6,286.9 814.6,285.3 815.5,284.6 815.8,284.2 815.8,283.9 815.5,283.8 815,283.9 814,284.2 812.9,284.6 798.4,290.8 
			783.8,296.5 782.7,297 781.8,297.5 781.3,297.8 		"/>
		<polygon class="st0" points="633.6,806.4 633.3,806.4 632.9,806.6 632,807.4 630,809 627.7,810.7 625,812.2 624.4,812.5 
			623.8,812.6 623.1,812.3 622.8,812 622.7,810.5 622.6,808.7 621.6,804.4 619.8,800.1 618.1,797.6 614.4,794.6 609.4,793.6 
			604.8,794.6 600.8,796.7 597.4,799.9 594.7,803.6 592.4,807.7 591,812.1 590.7,816.6 591.8,821.3 594.7,825.4 599,827.6 602,828 
			606.7,827.9 611,827 612.6,826.3 614,825.8 614.4,826 614.9,826.4 615.1,827 615.1,827.7 614.9,830.8 614.3,833.6 613.7,836.1 
			613.4,837.2 613.4,837.7 613.5,838 613.7,837.9 614.1,837.5 614.8,836.7 615.5,835.7 623.7,822.3 632.4,809.2 633,808.2 
			633.4,807.2 633.6,806.7 		"/>
		<polyline class="st0" points="602.6,795.7 602.6,795.7 602,792.1 601.8,791.8 601.4,791.7 601.1,792 601,792.4 601.6,796 
			601.7,796.3 		"/>
		<polyline class="st0" points="608,827.6 608.9,832.7 608.8,833.1 608.5,833.4 608.1,833.3 607.9,833 607,827.8 		"/>
		<polyline class="st0" points="590.9,814.2 590.8,814.2 587.3,815.1 586.9,815.1 586.7,814.8 586.8,814.3 587.1,814.1 590.6,813.1 
			590.9,813.1 		"/>
		<polyline class="st0" points="621.9,805.8 626.9,804.5 627.2,804.2 627.3,803.8 627.1,803.5 626.7,803.4 621.7,804.8 		"/>
		<polygon class="st0" points="606.7,827.9 611,827 612.6,826.3 614,825.8 614.4,826 614.9,826.4 615.1,827 615.1,827.7 
			614.9,830.8 614.3,833.6 613.7,836.1 613.4,837.2 613.4,837.7 613.5,838 613.7,837.9 614.1,837.5 614.8,836.7 615.5,835.7 
			623.7,822.3 632.4,809.2 633,808.2 633.4,807.2 633.6,806.7 633.6,806.4 633.3,806.4 632.9,806.6 632,807.4 630,809 627.7,810.7 
			625,812.2 624.4,812.5 623.8,812.6 623.1,812.3 622.8,812 622.7,810.5 622.6,808.7 621.6,804.4 619.8,800.1 618.1,797.6 
			614.4,794.6 609.4,793.6 604.8,794.6 600.8,796.7 597.4,799.9 594.7,803.6 592.4,807.7 591,812.1 590.7,816.6 591.8,821.3 
			594.7,825.4 599,827.6 602,828 		"/>
		<polygon class="st0" points="523.1,844.8 523.2,844.6 523.1,844.1 522.7,843 521.9,840.6 521.1,837.8 520.7,834.7 520.7,834.1 
			520.8,833.5 521.3,833 521.7,832.8 523.2,833.2 524.8,833.8 529.2,834.4 533.9,834.2 536.8,833.5 541,831.1 543.6,826.8 
			544.4,822.1 543.8,817.6 542.1,813.4 539.5,809.5 536.5,805.9 532.9,803 528.8,801.1 524.1,800.5 519.1,801.8 515.6,805 
			514.1,807.7 512.6,812.1 511.9,816.4 511.9,818.1 511.9,819.6 511.6,820 511,820.3 510.4,820.2 509.8,820.1 507,818.7 
			504.5,817.2 502.4,815.7 501.5,815 501,814.8 500.7,814.8 500.7,815.1 500.9,815.6 501.5,816.5 502.2,817.5 511.8,829.9 
			520.9,842.7 521.7,843.6 522.4,844.4 522.8,844.8 		"/>
		<polyline class="st0" points="544.1,819.7 544.1,819.7 547.7,820.4 548.1,820.3 548.2,820 548.1,819.6 547.8,819.3 544.2,818.6 
			543.9,818.6 		"/>
		<polyline class="st0" points="512.4,813.4 507.3,812.4 506.9,812.2 506.8,811.8 507,811.5 507.4,811.4 512.5,812.4 		"/>
		<polyline class="st0" points="531,802.1 531,802.1 531.4,798.5 531.5,798.2 531.9,798.1 532.3,798.3 532.4,798.7 532,802.3 
			532,802.6 		"/>
		<polyline class="st0" points="527.8,834.2 527.3,839.3 527.4,839.7 527.8,839.9 528.1,839.8 528.3,839.5 528.8,834.3 		"/>
		<polygon class="st0" points="512.6,812.1 511.9,816.4 511.9,818.1 511.9,819.6 511.6,820 511,820.3 510.4,820.2 509.8,820.1 
			506.9,818.7 504.5,817.2 502.4,815.7 501.5,815 501,814.8 500.7,814.8 500.7,815.1 500.9,815.6 501.5,816.5 502.2,817.5 
			511.8,829.9 520.9,842.7 521.7,843.6 522.4,844.4 522.8,844.8 523.1,844.8 523.2,844.6 523.1,844.1 522.7,843 521.9,840.6 
			521.1,837.8 520.7,834.7 520.7,834.1 520.8,833.5 521.3,833 521.7,832.8 523.2,833.2 524.8,833.8 529.2,834.4 533.9,834.2 
			536.8,833.5 541,831.1 543.6,826.8 544.4,822.1 543.8,817.6 542.1,813.4 539.5,809.5 536.5,805.9 532.9,803 528.8,801.1 
			524.1,800.5 519.1,801.8 515.6,805 514.1,807.7 		"/>
		<polygon class="st0" points="667.8,315 669,310.8 669.2,309 669.4,307.6 669.8,307.2 670.4,307 671,307.1 671.6,307.4 674.2,309 
			676.5,310.9 678.4,312.6 679.2,313.4 679.6,313.6 679.9,313.7 680,313.4 679.8,312.9 679.4,311.9 678.8,310.8 670.8,297.3 
			663.2,283.6 662.6,282.5 662,281.7 661.6,281.3 661.3,281.2 661.2,281.5 661.2,281.9 661.5,283 662,285.5 662.4,288.4 
			662.5,291.5 662.4,292.1 662.2,292.7 661.7,293.2 661.2,293.3 659.9,292.7 658.3,292 654,290.9 649.4,290.5 646.3,290.8 
			641.9,292.7 638.8,296.7 637.5,301.2 637.5,305.7 638.7,310.1 640.8,314.3 643.4,318.2 646.6,321.5 650.4,323.9 655.1,325.1 
			660.1,324.4 664,321.6 665.8,319.2 		"/>
		<polyline class="st0" points="655.4,291.2 656.5,286.2 656.4,285.8 656.1,285.5 655.7,285.5 655.5,285.8 654.4,290.9 		"/>
		<polyline class="st0" points="648.4,322.6 648.4,322.7 647.6,326.2 647.3,326.5 646.9,326.5 646.6,326.3 646.6,325.9 647.3,322.3 
			647.4,322 		"/>
		<polyline class="st0" points="668.2,313.7 673.1,315.3 673.5,315.5 673.5,315.9 673.3,316.3 672.9,316.3 667.9,314.7 		"/>
		<polyline class="st0" points="637.5,303.6 637.5,303.6 634,302.5 633.6,302.5 633.4,302.8 633.5,303.3 633.8,303.5 637.2,304.7 
			637.5,304.7 		"/>
		<polygon class="st0" points="661.3,281.2 661.2,281.5 661.2,281.9 661.5,283 662,285.5 662.4,288.4 662.5,291.5 662.4,292.1 
			662.2,292.7 661.7,293.2 661.2,293.3 659.9,292.7 658.3,292 654,290.9 649.4,290.5 646.3,290.8 641.9,292.7 638.8,296.7 
			637.5,301.2 637.5,305.7 638.7,310.1 640.8,314.3 643.4,318.2 646.6,321.5 650.4,323.9 655.1,325.1 660.1,324.4 664,321.6 
			665.8,319.2 667.8,315 669,310.8 669.2,309 669.4,307.6 669.8,307.2 670.4,307 671,307.1 671.6,307.4 674.2,309 676.5,310.9 
			678.4,312.6 679.2,313.4 679.6,313.6 679.9,313.7 680,313.4 679.8,312.9 679.4,311.9 678.8,310.8 670.8,297.3 663.2,283.6 
			662.6,282.5 662,281.7 661.6,281.3 		"/>
		<polygon class="st0" points="436.2,533.9 436.5,533.9 436.9,533.6 437.6,532.7 439.2,530.7 441.2,528.6 443.6,526.6 444.1,526.3 
			444.7,526.1 445.4,526.2 445.8,526.5 446.1,527.9 446.5,529.6 448.3,533.6 450.9,537.6 453,539.7 457.2,542 462.3,542 
			466.7,540.2 470.2,537.4 472.9,533.7 474.9,529.5 476.4,525 477,520.5 476.5,516 474.5,511.6 470.9,508.1 466.3,506.8 
			463.2,506.9 458.7,507.9 454.6,509.5 453.2,510.5 451.9,511.3 451.4,511.2 450.8,510.8 450.5,510.2 450.4,509.6 450,506.5 
			450.1,503.6 450.3,501.1 450.4,499.9 450.3,499.4 450.1,499.2 449.9,499.3 449.6,499.8 449.1,500.7 448.6,501.8 443,516.5 
			436.9,531 436.5,532.1 436.2,533.1 436.1,533.6 		"/>
		<polyline class="st0" points="468.6,538.7 468.6,538.7 469.9,542.1 470.1,542.4 470.5,542.4 470.8,542.1 470.8,541.7 469.6,538.3 
			469.4,538 		"/>
		<polyline class="st0" points="457.4,508.4 455.6,503.5 455.6,503.1 455.9,502.8 456.3,502.8 456.5,503.1 458.4,508 		"/>
		<polyline class="st0" points="476.7,518.4 476.8,518.4 480,516.8 480.4,516.8 480.7,517.1 480.7,517.5 480.4,517.8 477.1,519.4 
			476.9,519.5 		"/>
		<polyline class="st0" points="447.8,532.4 443.1,534.6 442.8,534.9 442.8,535.3 443.1,535.6 443.5,535.6 448.2,533.3 		"/>
		<polygon class="st0" points="458.7,507.9 454.6,509.5 453.2,510.5 451.9,511.3 451.4,511.2 450.8,510.8 450.5,510.2 450.4,509.6 
			450,506.5 450.1,503.6 450.3,501.1 450.4,499.9 450.3,499.4 450.1,499.2 449.9,499.3 449.6,499.8 449.1,500.7 448.6,501.8 
			443,516.5 436.9,531 436.5,532.1 436.2,533.1 436.1,533.6 436.2,533.9 436.5,533.9 436.9,533.6 437.6,532.7 439.2,530.7 
			441.2,528.6 443.6,526.6 444.1,526.3 444.7,526.1 445.4,526.2 445.8,526.5 446.1,527.9 446.5,529.6 448.3,533.6 450.9,537.6 
			453,539.7 457.2,542 462.3,542 466.7,540.2 470.2,537.4 472.9,533.7 474.9,529.5 476.4,525 477,520.5 476.5,516 474.5,511.6 
			470.9,508.1 466.3,506.8 463.2,506.9 		"/>
		<polygon class="st0" points="387,681.9 387.3,681.8 387.7,681.6 388.6,680.9 390.6,679.2 392.9,677.5 395.6,676 396.2,675.8 
			396.8,675.7 397.5,675.9 397.8,676.3 397.9,677.8 398,679.6 399,683.8 400.8,688.1 402.5,690.7 406.2,693.7 411.2,694.6 
			415.8,693.7 419.8,691.5 423.2,688.4 425.9,684.6 428.2,680.5 429.6,676.2 429.9,671.6 428.8,667 425.9,662.9 421.6,660.7 
			418.6,660.3 413.9,660.4 409.6,661.3 408,661.9 406.6,662.5 406.2,662.3 405.7,661.8 405.5,661.2 405.5,660.6 405.7,657.5 
			406.3,654.6 406.9,652.2 407.2,651.1 407.3,650.6 407.1,650.3 406.9,650.4 406.5,650.8 405.8,651.6 405.1,652.6 396.9,666 
			388.3,679.1 387.6,680.1 387.2,681.1 387,681.6 		"/>
		<polyline class="st0" points="418,692.5 418,692.6 418.6,696.2 418.8,696.5 419.2,696.5 419.5,696.3 419.6,695.9 419,692.3 
			419,692 		"/>
		<polyline class="st0" points="412.6,660.7 411.7,655.6 411.8,655.2 412.1,654.9 412.5,655 412.7,655.3 413.6,660.5 		"/>
		<polyline class="st0" points="429.7,674.1 429.8,674.1 433.3,673.1 433.7,673.2 433.9,673.5 433.8,673.9 433.5,674.2 430,675.1 
			429.7,675.2 		"/>
		<polyline class="st0" points="398.7,682.5 393.7,683.8 393.4,684.1 393.3,684.5 393.5,684.8 393.9,684.9 398.9,683.5 		"/>
		<polygon class="st0" points="413.9,660.4 409.6,661.3 408,661.9 406.6,662.5 406.2,662.3 405.7,661.8 405.5,661.2 405.5,660.6 
			405.7,657.5 406.3,654.6 406.9,652.2 407.2,651.1 407.3,650.6 407.1,650.3 406.9,650.4 406.5,650.8 405.8,651.6 405.1,652.6 
			396.9,666 388.3,679.1 387.6,680.1 387.2,681.1 387,681.6 387,681.9 387.3,681.8 387.7,681.6 388.6,680.9 390.6,679.2 
			392.9,677.5 395.6,676 396.2,675.8 396.8,675.7 397.5,675.9 397.8,676.3 397.9,677.8 398,679.6 399,683.8 400.8,688.1 
			402.5,690.7 406.2,693.7 411.2,694.6 415.8,693.7 419.8,691.5 423.2,688.4 425.9,684.6 428.2,680.5 429.6,676.2 429.9,671.6 
			428.8,667 425.9,662.9 421.6,660.7 418.6,660.3 		"/>
		<polygon class="st0" points="457.9,613.1 458.1,612.9 458.3,612.4 458.5,611.3 459,608.8 459.7,606 460.9,603.1 461.2,602.5 
			461.6,602.1 462.3,601.9 462.8,601.9 463.8,603 465,604.4 468.4,607 472.6,609.2 475.5,610.1 480.3,610.1 484.7,607.7 487.7,604 
			489.4,599.8 490.1,595.3 489.8,590.6 489,586 487.3,581.7 484.7,578 480.9,575.2 476,573.8 471.3,574.8 468.7,576.4 465.2,579.4 
			462.4,582.8 461.6,584.4 460.9,585.6 460.4,585.8 459.7,585.7 459.2,585.4 458.8,584.9 457,582.4 455.6,579.8 454.6,577.5 
			454.1,576.4 453.8,576 453.6,575.9 453.4,576.2 453.3,576.7 453.4,577.7 453.5,578.9 455.6,594.5 457.1,610.1 457.3,611.3 
			457.5,612.4 457.7,612.9 		"/>
		<polyline class="st0" points="488.7,601.8 488.7,601.8 491.4,604.2 491.8,604.3 492.1,604.1 492.2,603.7 492,603.3 489.3,600.9 
			489.1,600.8 		"/>
		<polyline class="st0" points="464.3,580.5 460.4,577.1 460.2,576.7 460.3,576.3 460.7,576.1 461,576.2 465,579.7 		"/>
		<polyline class="st0" points="790.4,305.3 785.5,303.5 785.1,303.6 784.8,303.8 784.8,304.2 785.1,304.5 790,306.3 		"/>
		<polyline class="st0" points="467.3,606.2 464.3,610.4 464.2,610.8 464.4,611.1 464.8,611.3 465.1,611.1 468.2,606.8 		"/>
		<polygon class="st0" points="465.2,579.4 462.4,582.8 461.6,584.4 460.9,585.6 460.4,585.8 459.7,585.7 459.2,585.4 458.8,584.9 
			457,582.4 455.6,579.8 454.6,577.5 454.1,576.4 453.8,576 453.6,575.9 453.4,576.2 453.3,576.7 453.4,577.7 453.5,578.9 
			455.6,594.5 457.1,610.1 457.3,611.3 457.5,612.4 457.7,612.9 457.9,613.1 458.1,612.9 458.3,612.4 458.5,611.3 459,608.8 
			459.7,606 460.9,603.1 461.2,602.5 461.6,602.1 462.3,601.9 462.8,601.9 463.8,603 465,604.4 468.4,607 472.6,609.2 475.5,610.1 
			480.3,610.1 484.7,607.7 487.7,604 489.4,599.8 490.1,595.3 489.8,590.6 489,586 487.3,581.7 484.7,578 480.9,575.2 476,573.8 
			471.3,574.8 468.7,576.4 		"/>
		<polygon class="st0" points="474.6,716.8 470.3,717.1 468.6,717.6 467.1,717.9 466.7,717.7 466.3,717.2 466.2,716.6 466.2,715.9 
			466.8,712.9 467.7,710.1 468.7,707.7 469.1,706.7 469.2,706.2 469.1,705.9 468.8,706 468.4,706.3 467.7,707 466.9,707.9 
			457.1,720.2 446.8,732.1 446.1,733.1 445.5,734 445.3,734.5 445.3,734.7 445.6,734.8 446,734.6 447,734 449.1,732.6 451.7,731.2 
			454.5,730 455.1,729.9 455.8,729.9 456.4,730.2 456.7,730.6 456.6,732.1 456.4,733.8 456.9,738.2 458.2,742.7 459.5,745.4 
			462.8,748.9 467.7,750.4 472.4,750.1 476.6,748.4 480.3,745.7 483.5,742.3 486.3,738.5 488.2,734.4 489.1,729.9 488.6,725.2 
			486.2,720.7 482.2,718 479.3,717.2 		"/>
		<polyline class="st0" points="456.7,736.8 451.6,737.5 451.3,737.7 451.2,738.1 451.3,738.5 451.7,738.6 456.9,737.8 		"/>
		<polyline class="st0" points="488.6,732.3 488.7,732.3 492.3,731.8 492.6,731.9 492.8,732.3 492.7,732.7 492.3,732.9 488.7,733.4 
			488.4,733.4 		"/>
		<polyline class="st0" points="473.2,716.9 473,711.7 473.2,711.3 473.5,711.1 473.9,711.2 474.1,711.6 474.3,716.8 		"/>
		<polyline class="st0" points="474.7,749.2 474.7,749.2 474.8,752.8 475,753.2 475.4,753.3 475.7,753.1 475.9,752.7 475.7,749.1 
			475.7,748.8 		"/>
		<polygon class="st0" points="445.3,734.7 445.6,734.8 446,734.6 447,734 449.1,732.6 451.7,731.2 454.5,730 455.1,729.9 
			455.8,729.9 456.4,730.2 456.7,730.6 456.6,732.1 456.4,733.8 456.9,738.2 458.2,742.7 459.5,745.4 462.8,748.9 467.7,750.4 
			472.4,750.1 476.6,748.4 480.3,745.7 483.5,742.3 486.3,738.5 488.2,734.4 489.1,729.9 488.6,725.2 486.2,720.7 482.2,718 
			479.3,717.2 474.6,716.8 470.3,717.1 468.6,717.6 467.1,717.9 466.7,717.7 466.3,717.2 466.2,716.6 466.2,715.9 466.8,712.9 
			467.7,710.1 468.7,707.7 469.1,706.7 469.2,706.2 469.1,705.9 468.8,706 468.4,706.3 467.7,707 466.9,707.9 457.1,720.2 
			446.8,732.1 446.1,733.1 445.5,734 445.3,734.5 		"/>
		<polygon class="st0" points="471.5,375.7 468.8,379.1 467.9,380.6 467.2,381.9 466.7,382.1 466.1,382 465.5,381.6 465.1,381.2 
			463.3,378.6 462,376.1 460.9,373.7 460.5,372.7 460.2,372.3 459.9,372.1 459.8,372.4 459.7,372.9 459.7,374 459.8,375.2 
			461.9,390.7 463.4,406.4 463.6,407.6 463.9,408.6 464,409.1 464.2,409.3 464.5,409.1 464.7,408.7 464.9,407.5 465.3,405 
			466.1,402.2 467.2,399.4 467.5,398.8 468,398.3 468.6,398.1 469.1,398.2 470.1,399.3 471.3,400.6 474.8,403.3 478.9,405.5 
			481.8,406.4 486.6,406.4 491.1,403.9 494.1,400.3 495.8,396.1 496.4,391.6 496.2,386.9 495.3,382.3 493.7,378 491,374.3 
			487.3,371.4 482.4,370 477.7,371.1 475.1,372.6 		"/>
		<polyline class="st0" points="473.7,402.4 470.7,406.6 470.6,407 470.8,407.4 471.1,407.5 471.5,407.3 474.5,403.1 		"/>
		<polyline class="st0" points="492.5,376.3 492.5,376.3 494.6,373.3 494.9,373.1 495.3,373.2 495.5,373.6 495.4,374 493.3,377 
			493.1,377.2 		"/>
		<polyline class="st0" points="470.7,376.7 466.8,373.3 466.6,373 466.7,372.6 467,372.4 467.4,372.5 471.3,375.9 		"/>
		<polyline class="st0" points="495,398 495,398 497.8,400.4 498.1,400.6 498.5,400.4 498.6,400 498.4,399.6 495.6,397.2 495.4,397 
					"/>
		<polygon class="st0" points="464.2,409.3 464.5,409.1 464.7,408.7 464.9,407.5 465.3,405 466.1,402.2 467.2,399.4 467.5,398.8 
			468,398.3 468.6,398.1 469.1,398.2 470.1,399.3 471.3,400.6 474.8,403.3 478.9,405.5 481.8,406.4 486.6,406.4 491.1,403.9 
			494.1,400.3 495.8,396.1 496.4,391.6 496.2,386.9 495.3,382.3 493.7,378 491,374.3 487.3,371.4 482.4,370 477.7,371.1 
			475.1,372.6 471.5,375.7 468.8,379.1 467.9,380.6 467.2,381.9 466.7,382.1 466.1,382 465.5,381.6 465.1,381.2 463.3,378.6 
			462,376.1 460.9,373.7 460.5,372.7 460.2,372.3 459.9,372.1 459.8,372.4 459.7,372.9 459.7,374 459.8,375.2 461.9,390.7 
			463.4,406.4 463.6,407.6 463.9,408.6 464,409.1 		"/>
		<polygon class="st0" points="455.3,464.7 455.5,464.6 455.8,464.2 456.3,463.2 457.3,460.8 458.7,458.3 460.4,455.7 460.8,455.3 
			461.4,454.9 462,454.8 462.5,455 463.3,456.3 464.1,457.9 466.9,461.3 470.4,464.3 473,465.9 477.7,466.9 482.6,465.6 
			486.4,462.7 489,459 490.6,454.7 491.4,450.1 491.6,445.4 491,440.9 489.3,436.7 486.3,433 481.8,430.6 477,430.6 474.1,431.5 
			470,433.6 466.5,436.3 465.4,437.6 464.4,438.7 463.8,438.8 463.2,438.6 462.8,438.1 462.5,437.5 461.3,434.7 460.6,431.8 
			460.1,429.3 459.9,428.2 459.7,427.8 459.4,427.6 459.2,427.8 459.1,428.3 458.8,429.3 458.6,430.5 457.2,446.1 455.1,461.7 
			455.1,462.9 455,464 455.1,464.5 		"/>
		<polyline class="st0" points="487.8,460.7 487.8,460.7 489.9,463.7 490.2,463.9 490.6,463.8 490.8,463.4 490.7,463 488.6,460 
			488.4,459.8 		"/>
		<polyline class="st0" points="468.9,434.5 465.9,430.3 465.8,429.9 466,429.5 466.3,429.4 466.7,429.6 469.7,433.8 		"/>
		<polyline class="st0" points="490.2,439 490.2,438.9 493,436.6 493.3,436.4 493.7,436.6 493.8,437 493.6,437.4 490.9,439.8 
			490.6,440 		"/>
		<polyline class="st0" points="466,460.2 462.1,463.6 461.9,463.9 462,464.3 462.4,464.6 462.7,464.4 466.7,461 		"/>
		<polygon class="st0" points="470,433.6 466.5,436.3 465.4,437.6 464.4,438.7 463.8,438.8 463.2,438.6 462.8,438.1 462.5,437.5 
			461.3,434.7 460.6,431.8 460.1,429.3 459.9,428.2 459.7,427.8 459.4,427.6 459.2,427.8 459.1,428.3 458.8,429.3 458.6,430.5 
			457.2,446.1 455.1,461.7 455.1,462.9 455,464 455.1,464.5 455.3,464.7 455.5,464.6 455.8,464.2 456.3,463.2 457.3,460.8 
			458.7,458.3 460.4,455.7 460.8,455.3 461.4,454.9 462,454.8 462.5,455 463.3,456.3 464.1,457.9 466.9,461.3 470.4,464.3 
			473,465.9 477.7,466.9 482.6,465.6 486.4,462.7 489,459 490.6,454.7 491.4,450.1 491.6,445.4 491,440.9 489.3,436.7 486.3,433 
			481.8,430.6 477,430.6 474.1,431.5 		"/>
		<polygon class="st0" points="420.3,456.6 416,457.5 414.4,458.2 413,458.7 412.5,458.6 412,458.1 411.8,457.5 411.8,456.8 
			412,453.7 412.6,450.9 413.3,448.4 413.6,447.3 413.6,446.8 413.5,446.6 413.2,446.7 412.8,447 412.2,447.8 411.5,448.8 
			403.3,462.2 394.6,475.3 394,476.4 393.5,477.3 393.3,477.8 393.4,478.1 393.7,478.1 394.1,477.9 395,477.1 396.9,475.5 
			399.3,473.8 402,472.3 402.6,472 403.2,472 403.8,472.2 404.2,472.6 404.3,474 404.3,475.8 405.3,480.1 407.2,484.4 408.8,486.9 
			412.6,490 417.5,490.9 422.2,490 426.1,487.8 429.5,484.7 432.3,480.9 434.5,476.8 435.9,472.4 436.2,467.9 435.1,463.3 
			432.2,459.1 427.9,457 424.9,456.5 		"/>
		<polyline class="st0" points="405,478.7 400,480.1 399.7,480.3 399.6,480.7 399.8,481.1 400.2,481.1 405.2,479.7 		"/>
		<polyline class="st0" points="436.1,470.3 436.1,470.3 439.6,469.4 440,469.4 440.2,469.8 440.1,470.2 439.8,470.4 436.3,471.4 
			436,471.4 		"/>
		<polyline class="st0" points="418.9,456.9 418,451.8 418.1,451.4 418.5,451.2 418.9,451.2 419.1,451.5 419.9,456.7 		"/>
		<polyline class="st0" points="424.3,488.8 424.3,488.8 424.9,492.4 425.1,492.7 425.5,492.8 425.9,492.5 426,492.1 425.3,488.5 
			425.3,488.3 		"/>
		<polygon class="st0" points="393.4,478.1 393.7,478.1 394.1,477.9 395,477.1 396.9,475.5 399.3,473.8 402,472.3 402.6,472 
			403.2,472 403.8,472.2 404.2,472.6 404.3,474 404.3,475.8 405.3,480.1 407.2,484.4 408.8,486.9 412.6,490 417.5,490.9 422.2,490 
			426.1,487.8 429.5,484.7 432.3,480.9 434.5,476.8 435.9,472.4 436.2,467.9 435.1,463.3 432.2,459.1 427.9,457 424.9,456.5 
			420.3,456.6 416,457.5 414.4,458.2 413,458.7 412.5,458.6 412,458.1 411.8,457.5 411.8,456.8 412,453.7 412.6,450.9 413.3,448.4 
			413.6,447.3 413.6,446.8 413.5,446.6 413.2,446.7 412.8,447 412.2,447.8 411.5,448.8 403.3,462.2 394.6,475.3 394,476.4 
			393.5,477.3 393.3,477.8 		"/>
		<polygon class="st0" points="786.6,441.5 786.3,441.5 785.9,441.7 785,442.5 783.1,444.1 780.7,445.8 778,447.3 777.4,447.5 
			776.8,447.6 776.2,447.4 775.8,447 775.7,445.5 775.7,443.8 774.7,439.5 772.8,435.2 771.2,432.7 767.4,429.6 762.4,428.7 
			757.8,429.6 753.8,431.8 750.5,434.9 747.7,438.7 745.5,442.8 744,447.2 743.7,451.7 744.8,456.3 747.8,460.5 752.1,462.6 
			755.1,463.1 759.7,462.9 764,462.1 765.6,461.4 767,460.8 767.5,461 768,461.5 768.1,462.1 768.2,462.7 767.9,465.8 767.4,468.7 
			766.7,471.2 766.4,472.3 766.4,472.7 766.5,473 766.8,472.9 767.2,472.6 767.8,471.7 768.5,470.7 776.7,457.3 785.4,444.3 
			786,443.2 786.5,442.3 786.6,441.8 		"/>
		<polyline class="st0" points="755.7,430.8 755.7,430.8 755,427.2 754.8,426.8 754.4,426.8 754.1,427 754,427.4 754.6,431 
			754.7,431.3 		"/>
		<polyline class="st0" points="761.1,462.7 761.9,467.8 761.9,468.2 761.5,468.4 761.1,468.4 760.9,468 760,462.9 		"/>
		<polyline class="st0" points="743.9,449.2 743.9,449.3 740.4,450.2 740,450.1 739.8,449.8 739.9,449.4 740.2,449.2 743.7,448.2 
			744,448.1 		"/>
		<polyline class="st0" points="775,440.9 779.9,439.5 780.3,439.3 780.4,438.9 780.2,438.5 779.8,438.5 774.7,439.8 		"/>
		<polygon class="st0" points="759.7,462.9 764,462.1 765.6,461.4 767,460.8 767.5,461 768,461.5 768.1,462.1 768.2,462.7 
			767.9,465.8 767.4,468.7 766.7,471.2 766.4,472.3 766.4,472.7 766.5,473 766.8,472.9 767.2,472.6 767.8,471.7 768.5,470.7 
			776.7,457.3 785.4,444.3 786,443.2 786.5,442.3 786.6,441.8 786.6,441.5 786.3,441.5 785.9,441.7 785,442.5 783.1,444.1 
			780.7,445.8 778,447.3 777.4,447.5 776.8,447.6 776.2,447.4 775.8,447 775.7,445.5 775.7,443.8 774.7,439.5 772.8,435.2 
			771.2,432.7 767.4,429.6 762.4,428.7 757.8,429.6 753.8,431.8 750.5,434.9 747.7,438.7 745.5,442.8 744,447.2 743.7,451.7 
			744.8,456.3 747.8,460.5 752.1,462.6 755.1,463.1 		"/>
		<polygon class="st0" points="715.7,510.3 715.5,510.5 715.3,510.9 715.1,512 714.6,514.5 713.9,517.3 712.8,520.2 712.4,520.8 
			712,521.2 711.4,521.4 710.9,521.4 709.9,520.3 708.7,519 705.2,516.3 701.1,514.1 698.2,513.2 693.4,513.2 688.9,515.6 
			685.9,519.3 684.2,523.5 683.6,528 683.8,532.7 684.7,537.3 686.3,541.6 688.9,545.3 692.7,548.2 697.6,549.5 702.3,548.5 
			704.9,546.9 708.4,543.9 711.2,540.5 712,539 712.8,537.7 713.3,537.5 713.9,537.6 714.4,537.9 714.9,538.4 716.6,540.9 
			718,543.5 719.1,545.9 719.5,546.9 719.8,547.3 720.1,547.4 720.2,547.2 720.3,546.7 720.3,545.6 720.2,544.4 718.1,528.8 
			716.5,513.2 716.4,512 716.1,511 715.9,510.5 		"/>
		<polyline class="st0" points="685,521.5 685,521.5 682.2,519.1 681.9,519 681.5,519.2 681.4,519.6 681.6,520 684.3,522.4 
			684.6,522.6 		"/>
		<polyline class="st0" points="709.3,542.8 713.2,546.2 713.4,546.6 713.3,547 713,547.2 712.6,547.1 708.7,543.6 		"/>
		<polyline class="st0" points="687.5,543.3 687.5,543.3 685.4,546.3 685.1,546.5 684.7,546.3 684.5,546 684.6,545.6 686.7,542.6 
			686.9,542.4 		"/>
		<polyline class="st0" points="706.3,517.1 709.3,513 709.4,512.6 709.2,512.2 708.9,512.1 708.5,512.3 705.5,516.5 		"/>
		<polygon class="st0" points="708.4,543.9 711.2,540.5 712,539 712.8,537.7 713.3,537.5 713.9,537.6 714.4,537.9 714.9,538.4 
			716.6,540.9 718,543.5 719.1,545.9 719.5,546.9 719.8,547.3 720.1,547.4 720.2,547.2 720.3,546.7 720.3,545.6 720.2,544.4 
			718.1,528.8 716.5,513.2 716.4,512 716.1,511 715.9,510.5 715.7,510.3 715.5,510.5 715.3,510.9 715.1,512 714.6,514.5 
			713.9,517.3 712.8,520.2 712.4,520.8 712,521.2 711.4,521.4 710.9,521.4 709.9,520.3 708.7,519 705.2,516.3 701.1,514.1 
			698.2,513.2 693.4,513.2 688.9,515.6 685.9,519.3 684.2,523.5 683.6,528 683.8,532.7 684.7,537.3 686.3,541.6 688.9,545.3 
			692.7,548.2 697.6,549.5 702.3,548.5 704.9,546.9 		"/>
		<polygon class="st0" points="699,406.6 703.4,406.2 705.1,405.7 706.5,405.4 707,405.6 707.4,406.1 707.5,406.8 707.4,407.4 
			706.8,410.4 705.9,413.2 705,415.6 704.5,416.6 704.4,417.1 704.5,417.4 704.8,417.3 705.2,417 706,416.3 706.8,415.4 
			716.6,403.1 726.8,391.2 727.5,390.2 728.1,389.3 728.4,388.9 728.4,388.6 728.1,388.6 727.6,388.7 726.7,389.4 724.5,390.7 
			722,392.1 719.1,393.3 718.5,393.5 717.9,393.5 717.3,393.2 717,392.8 717.1,391.3 717.2,389.5 716.8,385.2 715.5,380.6 
			714.1,377.9 710.8,374.5 706,372.9 701.2,373.3 697,374.9 693.3,377.6 690.1,381 687.4,384.8 685.4,389 684.6,393.4 685.1,398.1 
			687.5,402.6 691.5,405.3 694.4,406.1 		"/>
		<polyline class="st0" points="716.9,386.5 722,385.8 722.4,385.6 722.5,385.2 722.3,384.9 722,384.8 716.8,385.5 		"/>
		<polyline class="st0" points="685,391 685,391 681.4,391.5 681,391.4 680.8,391.1 681,390.7 681.3,390.5 684.9,390 685.2,389.9 		
			"/>
		<polyline class="st0" points="700.4,406.4 700.6,411.6 700.5,412 700.1,412.2 699.8,412.1 699.6,411.8 699.4,406.5 		"/>
		<polyline class="st0" points="699,374.2 699,374.1 698.8,370.5 698.6,370.1 698.3,370 697.9,370.2 697.8,370.6 697.9,374.3 
			697.9,374.6 		"/>
		<polygon class="st0" points="728.4,388.6 728.1,388.6 727.6,388.7 726.7,389.4 724.5,390.7 722,392.1 719.1,393.3 718.5,393.5 
			717.9,393.5 717.3,393.2 717,392.8 717.1,391.3 717.2,389.5 716.8,385.2 715.5,380.6 714.1,377.9 710.8,374.5 706,372.9 
			701.2,373.3 697,374.9 693.3,377.6 690.1,381 687.4,384.8 685.4,389 684.6,393.4 685.1,398.1 687.5,402.6 691.5,405.3 
			694.4,406.1 699,406.6 703.4,406.2 705.1,405.7 706.5,405.4 707,405.6 707.4,406.1 707.5,406.8 707.4,407.4 706.8,410.4 
			705.9,413.2 705,415.6 704.5,416.6 704.4,417.1 704.5,417.4 704.8,417.3 705.2,417 706,416.3 706.8,415.4 716.6,403.1 
			726.8,391.2 727.5,390.2 728.1,389.3 728.4,388.9 		"/>
		<polygon class="st0" points="722,592.3 721.7,592.3 721.3,592.5 720.3,593.1 718.2,594.5 715.6,595.9 712.8,597.1 712.2,597.2 
			711.5,597.2 710.9,596.9 710.6,596.5 710.7,595 710.9,593.3 710.4,588.9 709.1,584.4 707.8,581.7 704.5,578.2 699.6,576.7 
			694.9,577 690.7,578.7 687,581.4 683.8,584.8 681,588.6 679.1,592.7 678.2,597.2 678.7,601.9 681.1,606.4 685.1,609 688,609.8 
			692.7,610.3 697,610 698.7,609.5 700.2,609.1 700.6,609.4 701,609.9 701.2,610.5 701.1,611.2 700.5,614.2 699.6,617 698.6,619.3 
			698.2,620.4 698.1,620.9 698.2,621.1 698.5,621.1 698.9,620.8 699.6,620 700.4,619.1 710.2,606.9 720.5,594.9 721.2,594 
			721.8,593.1 722,592.6 		"/>
		<polyline class="st0" points="692.6,577.9 692.6,577.9 692.5,574.2 692.3,573.9 691.9,573.8 691.6,574 691.4,574.4 691.6,578 
			691.6,578.3 		"/>
		<polyline class="st0" points="694.1,610.2 694.3,615.4 694.2,615.8 693.8,616 693.4,615.9 693.2,615.5 693,610.3 		"/>
		<polyline class="st0" points="678.7,594.8 678.6,594.8 675.1,595.3 674.7,595.2 674.5,594.8 674.6,594.4 675,594.2 678.6,593.7 
			678.9,593.7 		"/>
		<polyline class="st0" points="710.6,590.3 715.7,589.6 716,589.4 716.2,589 716,588.6 715.6,588.5 710.4,589.2 		"/>
		<polygon class="st0" points="692.7,610.3 697,610 698.7,609.5 700.2,609.1 700.6,609.4 701,609.9 701.2,610.5 701.1,611.2 
			700.5,614.2 699.6,617 698.6,619.3 698.2,620.4 698.1,620.9 698.2,621.1 698.5,621.1 698.9,620.8 699.6,620 700.4,619.1 
			710.2,606.9 720.5,594.9 721.2,594 721.8,593.1 722,592.6 722,592.3 721.7,592.3 721.3,592.5 720.3,593.1 718.2,594.5 
			715.6,595.9 712.8,597.1 712.2,597.2 711.5,597.2 710.9,596.9 710.6,596.5 710.7,595 710.9,593.3 710.4,588.9 709.1,584.4 
			707.8,581.7 704.5,578.2 699.6,576.7 694.9,577 690.7,578.7 687,581.4 683.8,584.8 681,588.6 679.1,592.7 678.2,597.2 
			678.7,601.9 681.1,606.4 685.1,609 688,609.8 		"/>
		<rect x="599" y="558.2" class="st0" width="64.7" height="155.2"/>
		<polygon class="st0" points="702.1,747.6 704.9,744.3 705.7,742.7 706.4,741.4 706.9,741.3 707.6,741.3 708.1,741.7 708.5,742.2 
			710.3,744.7 711.7,747.3 712.7,749.6 713.2,750.7 713.5,751 713.7,751.2 713.9,750.9 714,750.4 713.9,749.4 713.8,748.1 
			711.7,732.6 710.2,717 710,715.8 709.8,714.7 709.6,714.2 709.4,714 709.2,714.2 709,714.7 708.8,715.8 708.3,718.3 707.6,721.1 
			706.4,724 706.1,724.5 705.7,725 705,725.2 704.5,725.1 703.5,724.1 702.3,722.7 698.9,720.1 694.7,717.9 691.8,716.9 687,717 
			682.6,719.4 679.6,723 677.9,727.2 677.2,731.8 677.5,736.4 678.3,741.1 680,745.3 682.6,749 686.4,751.9 691.3,753.3 696,752.2 
			698.6,750.7 		"/>
		<polyline class="st0" points="700,720.9 703,716.7 703.1,716.3 702.9,715.9 702.5,715.8 702.2,716 699.1,720.3 		"/>
		<polyline class="st0" points="681.2,747 681.2,747.1 679,750 678.7,750.2 678.3,750.1 678.2,749.7 678.3,749.3 680.4,746.4 
			680.5,746.1 		"/>
		<polyline class="st0" points="703,746.6 706.9,750 707.1,750.4 707,750.8 706.6,751 706.3,750.8 702.3,747.4 		"/>
		<polyline class="st0" points="678.6,725.3 678.6,725.3 675.9,722.9 675.5,722.8 675.2,723 675.1,723.4 675.3,723.7 678,726.1 
			678.2,726.3 		"/>
		<polygon class="st0" points="709.4,714 709.2,714.2 709,714.7 708.8,715.8 708.3,718.3 707.6,721.1 706.4,724 706.1,724.5 
			705.7,725 705,725.2 704.5,725.1 703.5,724.1 702.3,722.7 698.9,720.1 694.7,717.9 691.8,716.9 687,717 682.6,719.4 679.6,723 
			677.9,727.2 677.2,731.8 677.5,736.4 678.3,741.1 680,745.3 682.6,749 686.4,751.9 691.3,753.3 696,752.2 698.6,750.7 
			702.1,747.6 704.9,744.3 705.7,742.7 706.4,741.4 706.9,741.3 707.6,741.3 708.1,741.7 708.5,742.2 710.3,744.7 711.7,747.3 
			712.7,749.6 713.2,750.7 713.5,751 713.7,751.2 713.9,750.9 714,750.4 713.9,749.4 713.8,748.1 711.7,732.6 710.2,717 710,715.8 
			709.8,714.7 709.6,714.2 		"/>
		<polygon class="st0" points="718.4,658.6 718.1,658.7 717.8,659.1 717.4,660.2 716.3,662.5 715,665.1 713.2,667.6 712.8,668.1 
			712.3,668.4 711.6,668.5 711.1,668.3 710.4,667 709.5,665.5 706.8,662.1 703.2,659 700.6,657.5 695.9,656.4 691,657.7 
			687.3,660.6 684.7,664.3 683,668.6 682.2,673.2 682,677.9 682.6,682.4 684.4,686.6 687.4,690.3 691.8,692.7 696.6,692.8 
			699.5,691.9 703.7,689.7 707.1,687 708.3,685.7 709.3,684.6 709.8,684.6 710.4,684.8 710.9,685.2 711.2,685.8 712.3,688.7 
			713.1,691.5 713.6,694 713.8,695.1 714,695.6 714.2,695.8 714.4,695.5 714.6,695.1 714.8,694 715,692.8 716.5,677.2 718.5,661.6 
			718.6,660.4 718.6,659.3 718.5,658.8 		"/>
		<polyline class="st0" points="685.9,662.6 685.9,662.6 683.7,659.6 683.4,659.4 683,659.6 682.8,659.9 682.9,660.3 685.1,663.3 
			685.2,663.5 		"/>
		<polyline class="st0" points="704.8,688.8 707.8,693 707.9,693.4 707.7,693.8 707.3,693.9 707,693.7 703.9,689.5 		"/>
		<polyline class="st0" points="683.4,684.4 683.4,684.4 680.7,686.8 680.3,686.9 680,686.7 679.9,686.3 680.1,685.9 682.8,683.5 
			683,683.3 		"/>
		<polyline class="st0" points="707.6,663.2 711.5,659.8 711.7,659.4 711.6,659 711.3,658.8 710.9,658.9 707,662.3 		"/>
		<polygon class="st0" points="703.7,689.7 707.1,687 708.3,685.7 709.3,684.6 709.8,684.6 710.4,684.8 710.9,685.2 711.2,685.8 
			712.3,688.7 713.1,691.5 713.6,694 713.8,695.1 714,695.6 714.2,695.8 714.4,695.5 714.6,695.1 714.8,694 715,692.8 716.5,677.2 
			718.5,661.6 718.6,660.4 718.6,659.3 718.5,658.8 718.4,658.6 718.1,658.7 717.8,659.1 717.4,660.2 716.3,662.5 715,665.1 
			713.2,667.6 712.8,668.1 712.3,668.4 711.6,668.5 711.1,668.3 710.4,667 709.5,665.5 706.8,662.1 703.2,659 700.6,657.5 
			695.9,656.4 691,657.7 687.3,660.6 684.7,664.3 683,668.6 682.2,673.2 682,677.9 682.6,682.4 684.4,686.6 687.4,690.3 
			691.8,692.7 696.6,692.8 699.5,691.9 		"/>
		<polygon class="st0" points="753.4,666.7 757.7,665.8 759.3,665.1 760.7,664.6 761.1,664.8 761.6,665.2 761.8,665.9 761.8,666.5 
			761.6,669.6 761,672.4 760.4,674.9 760.1,676 760.1,676.5 760.2,676.8 760.4,676.7 760.8,676.3 761.5,675.5 762.2,674.5 
			770.4,661.1 779.1,648 779.7,647 780.1,646 780.3,645.5 780.3,645.2 780,645.2 779.6,645.5 778.7,646.2 776.7,647.8 774.4,649.5 
			771.7,651.1 771.1,651.3 770.5,651.4 769.8,651.1 769.5,650.8 769.4,649.3 769.3,647.5 768.3,643.3 766.5,638.9 764.8,636.4 
			761.1,633.4 756.1,632.4 751.5,633.4 747.5,635.5 744.1,638.7 741.4,642.4 739.1,646.5 737.7,650.9 737.4,655.4 738.5,660.1 
			741.4,664.2 745.7,666.4 748.7,666.8 		"/>
		<polyline class="st0" points="768.6,644.6 773.6,643.3 773.9,643 774,642.6 773.8,642.3 773.4,642.2 768.4,643.6 		"/>
		<polyline class="st0" points="737.6,653 737.5,653 734,653.9 733.6,653.9 733.4,653.6 733.5,653.2 733.8,652.9 737.3,652 
			737.6,651.9 		"/>
		<polyline class="st0" points="754.7,666.4 755.6,671.5 755.5,671.9 755.2,672.2 754.8,672.1 754.6,671.8 753.7,666.6 		"/>
		<polyline class="st0" points="749.3,634.5 749.3,634.5 748.7,630.9 748.5,630.6 748.1,630.5 747.8,630.8 747.7,631.2 748.3,634.8 
			748.4,635.1 		"/>
		<polygon class="st0" points="780.3,645.2 780,645.2 779.6,645.5 778.7,646.2 776.7,647.8 774.4,649.5 771.7,651.1 771.1,651.3 
			770.5,651.4 769.8,651.1 769.5,650.8 769.4,649.3 769.3,647.5 768.3,643.3 766.5,638.9 764.8,636.4 761.1,633.4 756.1,632.4 
			751.5,633.4 747.5,635.5 744.1,638.7 741.4,642.4 739.1,646.5 737.7,650.9 737.4,655.4 738.5,660.1 741.4,664.2 745.7,666.4 
			748.7,666.8 753.4,666.7 757.7,665.8 759.3,665.1 760.7,664.6 761.1,664.8 761.6,665.2 761.8,665.9 761.8,666.5 761.6,669.6 
			761,672.4 760.4,674.9 760.1,676 760.1,676.5 760.2,676.8 760.4,676.7 760.8,676.3 761.5,675.5 762.2,674.5 770.4,661.1 
			779.1,648 779.7,647 780.1,646 780.3,645.5 		"/>
		<polygon class="st0" points="815.5,296.1 811.5,294.3 809.8,293.9 808.4,293.6 808.1,293.1 808,292.5 808.2,291.9 808.5,291.3 
			810.5,289 812.6,286.9 814.6,285.3 815.5,284.6 815.8,284.2 815.8,283.9 815.5,283.8 815,283.9 814,284.2 812.9,284.6 
			798.4,290.8 783.8,296.5 782.7,297 781.8,297.5 781.3,297.8 781.2,298.1 781.4,298.3 781.9,298.3 783.1,298.2 785.6,298 
			788.5,298 791.6,298.3 792.2,298.4 792.8,298.7 793.1,299.3 793.2,299.8 792.4,301 791.5,302.5 789.8,306.6 788.8,311.2 
			788.7,314.2 790,318.8 793.6,322.5 797.9,324.4 802.4,324.9 806.9,324.3 811.4,322.8 815.6,320.7 819.3,318 822.1,314.5 
			823.9,310.1 823.9,305 821.6,300.7 819.4,298.7 		"/>
		<rect x="603.4" y="397.9" class="st0" width="64.7" height="155.2"/>
		<rect x="513" y="717.9" class="st0" width="155.2" height="64.7"/>
		
			<rect x="458.5" y="602.9" transform="matrix(1.702946e-02 -0.9999 0.9999 1.702946e-02 -108.2051 1160.4264)" class="st0" width="155.2" height="64.7"/>
		
			<rect x="506.1" y="396.8" transform="matrix(0.999 -4.405487e-02 4.405487e-02 0.999 -20.3777 24.1821)" class="st0" width="64.7" height="155.2"/>
		<rect x="506.7" y="330.3" class="st0" width="155.2" height="64.7"/>
		<rect x="686.2" y="910.5" class="st0" width="103.5" height="6.5"/>
		<rect x="686.2" y="888.1" class="st0" width="103.5" height="51.7"/>
		<rect x="520.6" y="214.1" class="st0" width="136.5" height="18.1"/>
		<polyline class="st0" points="627.7,247 614,258.7 588,258.7 562,258.7 548.3,247 		"/>
		<polyline class="st0" points="548.3,247 514.7,247 514.7,210.8 661.3,210.8 661.3,247 627.7,247 		"/>
		<polyline class="st0" points="627.2,247.4 628.9,252.5 635.3,250.4 634.2,247 		"/>
		<rect x="333.6" y="151.2" class="st0" width="155.2" height="64.7"/>
		<rect x="290.8" y="236.3" class="st0" width="51.7" height="103.5"/>
		<rect x="313.2" y="236.3" class="st0" width="6.5" height="103.5"/>
		<rect x="690.5" y="940.2" class="st0" width="155.2" height="69"/>
		<polyline class="st0" points="486.1,580 486.1,580 488.3,577.1 488.6,576.9 489,577 489.1,577.4 489.1,577.8 486.9,580.7 
			486.8,581 		"/>
		<rect x="646.4" y="950.5" class="st0" width="40.1" height="40.1"/>
		<polyline class="st0" points="554,210.8 559.6,194 566,196.2 561.1,210.8 		"/>
		<polyline class="st0" points="548.7,247.4 547,252.5 540.7,250.4 541.8,247 		"/>
		<polyline class="st0" points="622,210.8 616.4,194 610,196.2 614.9,210.8 		"/>
		<path class="st0" d="M858.9,1003.2c0-1.1-0.5-2.2-1.3-3s-1.9-1.3-3-1.3c-1.1,0-2.2,0.5-3,1.3c-0.8,0.8-1.3,1.9-1.3,3
			c0,1.1,0.5,2.2,1.3,3c0.8,0.8,1.9,1.3,3,1.3c1.1,0,2.2-0.5,3-1.3C858.5,1005.5,858.9,1004.4,858.9,1003.2z"/>
		<path class="st0" d="M305.1,1003.2c0-1.1-0.5-2.2-1.3-3s-1.9-1.3-3-1.3c-1.1,0-2.2,0.5-3,1.3c-0.8,0.8-1.3,1.9-1.3,3
			c0,1.1,0.5,2.2,1.3,3c0.8,0.8,1.9,1.3,3,1.3c1.1,0,2.2-0.5,3-1.3C304.7,1005.5,305.1,1004.4,305.1,1003.2z"/>
		<path class="st0" d="M604.3,1003.2c0-1.1-0.5-2.2-1.3-3s-1.9-1.3-3-1.3c-1.1,0-2.2,0.5-3,1.3c-0.8,0.8-1.3,1.9-1.3,3
			c0,1.1,0.5,2.2,1.3,3c0.8,0.8,1.9,1.3,3,1.3c1.1,0,2.2-0.5,3-1.3C603.8,1005.5,604.3,1004.4,604.3,1003.2z"/>
		<rect x="471.2" y="107.4" class="st0" width="12.1" height="3.4"/>
		<rect x="677.3" y="107.4" class="st0" width="2.6" height="3.4"/>
		<line class="st0" x1="295.3" y1="107.4" x2="471.2" y2="107.4"/>
		<rect x="560.9" y="107.4" class="st0" width="33.6" height="41.4"/>
		<rect x="860" y="107.4" class="st0" width="33.6" height="41.4"/>
		<polyline class="st0" points="271.6,909.2 185,909.2 185,998.4 261.7,998.4 261.7,976.4 295.3,976.4 295.3,909.2 283.7,909.2 		
			"/>
		<line class="st0" x1="262.5" y1="972.1" x2="189.3" y2="913.5"/>
		<line class="st0" x1="189.3" y1="994.1" x2="291" y2="913.5"/>
		<polygon class="st0" points="189.3,913.5 189.3,994.1 257.4,994.1 257.4,972.1 291,972.1 291,913.5 		"/>
		<polyline class="st0" points="679.9,109.1 679.9,108.3 857.4,108.3 		"/>
		<polyline class="st0" points="597.1,107.4 597.1,108.3 677.3,108.3 		"/>
		<polyline class="st0" points="483.3,109.1 483.3,108.3 558.3,108.3 		"/>
		<polyline class="st0" points="297.9,109.1 297.9,108.3 471.2,108.3 		"/>
		<line class="st0" x1="558.3" y1="109.1" x2="483.3" y2="109.1"/>
		<polyline class="st0" points="295.3,109.1 295.3,133.3 560.9,133.3 560.9,109.1 		"/>
		<polyline class="st0" points="560.9,109.1 560.9,107.4 483.3,107.4 483.3,109.1 558.3,109.1 		"/>
		<line class="st0" x1="483.3" y1="109.1" x2="558.3" y2="109.1"/>
		<rect x="558.3" y="107.4" class="st0" width="2.6" height="3.4"/>
		<line class="st0" x1="857.4" y1="109.1" x2="679.9" y2="109.1"/>
		<polyline class="st0" points="594.5,109.1 594.5,133.3 860,133.3 860,109.1 		"/>
		<line class="st0" x1="860" y1="109.1" x2="860" y2="107.4"/>
		<polyline class="st0" points="857.4,107.4 679.9,107.4 679.9,109.1 857.4,109.1 		"/>
		<line class="st0" x1="679.9" y1="109.1" x2="857.4" y2="109.1"/>
		<rect x="857.4" y="107.4" class="st0" width="2.6" height="3.4"/>
		<line class="st0" x1="677.3" y1="109.1" x2="597.1" y2="109.1"/>
		<polyline class="st0" points="597.1,109.1 677.3,109.1 677.3,107.4 594.5,107.4 594.5,109.1 		"/>
		<line class="st0" x1="597.1" y1="109.1" x2="677.3" y2="109.1"/>
		<rect x="594.5" y="107.4" class="st0" width="2.6" height="3.4"/>
		<line class="st0" x1="483.3" y1="107.4" x2="857.4" y2="107.4"/>
		<polyline class="st0" points="860,107.4 893.7,107.4 893.7,101.7 261.7,101.7 261.7,107.4 857.4,107.4 		"/>
		<line class="st0" x1="471.2" y1="109.1" x2="297.9" y2="109.1"/>
		<polyline class="st0" points="297.9,109.1 471.2,109.1 471.2,107.4 295.3,107.4 295.3,109.1 		"/>
		<line class="st0" x1="297.9" y1="109.1" x2="471.2" y2="109.1"/>
		<rect x="295.3" y="107.4" class="st0" width="2.6" height="3.4"/>
		<rect x="261.7" y="107.4" class="st0" width="33.6" height="41.4"/>
		<line class="st0" x1="594.5" y1="133.3" x2="860" y2="133.3"/>
		<line class="st0" x1="295.3" y1="133.3" x2="560.9" y2="133.3"/>
		<rect x="871.2" y="260.9" class="st0" width="12.1" height="620.7"/>
		<line class="st0" x1="271.6" y1="909.2" x2="271.6" y2="348.8"/>
		<line class="st0" x1="283.7" y1="909.2" x2="283.7" y2="348.8"/>
		<line class="st0" x1="271.6" y1="348.8" x2="283.7" y2="348.8"/>
		<line class="st0" x1="261.7" y1="998.4" x2="185" y2="998.4"/>
		<rect x="261.7" y="976.4" class="st0" width="33.6" height="33.6"/>
		<rect x="560.9" y="976.4" class="st0" width="33.6" height="33.6"/>
		<rect x="860" y="976.4" class="st0" width="33.6" height="33.6"/>
		<path class="st0" d="M599.7,981c0-1.2-1-2.2-2.2-2.2c-1.2,0-2.2,1-2.2,2.2c0,1.2,1,2.2,2.2,2.2C598.7,983.2,599.7,982.2,599.7,981
			z"/>
	</g>
</g>
</svg>
